<?xml version="1.0" encoding="UTF-8"?>
<svg width="100px" height="30px" viewBox="0 0 100 30" version="1.1" xmlns="http://www.w3.org/2000/svg" xmlns:xlink="http://www.w3.org/1999/xlink">
    <title>Amazon_logo</title>
    <g id="Home" stroke="none" stroke-width="1" fill="none" fill-rule="evenodd">
        <g transform="translate(-973.000000, -3044.000000)" fill="#000000" id="Weaponise-CV">
            <g transform="translate(0.000000, 1669.000000)">
                <g id="Get-Hired" transform="translate(140.000000, 1228.000000)">
                    <g id="Logos" transform="translate(625.000000, 0.000000)">
                        <g id="Amazon_logo" transform="translate(208.000000, 147.000000)">
                            <path d="M61.627196,23.4107464 C55.8545116,27.6656722 47.4873566,29.9358288 40.283396,29.9358288 C30.1822758,29.9358288 21.0886778,26.1997987 14.2090192,19.9860536 C13.6685066,19.4974262 14.152804,18.8315156 14.8014228,19.2120348 C22.2259162,23.5318222 31.4060017,26.1306119 40.8887722,26.1306119 C47.2841245,26.1306119 54.3194503,24.8074321 60.7883175,22.0616255 C61.7655656,21.6465079 62.5828222,22.701593 61.627196,23.4107464" id="path8"></path>
                            <path d="M64.0270768,20.6649387 C63.2919755,19.7222831 59.1494801,20.219555 57.2901149,20.4400848 C56.7236543,20.5092715 56.6371758,20.0163219 57.1474172,19.6617427 C60.4467129,17.339697 65.860499,18.0099348 66.4918182,18.7882728 C67.1231364,19.5709381 66.3275026,24.9976967 63.2271149,27.5878351 C62.7514629,27.985652 62.2974318,27.7737735 62.5093142,27.2462305 C63.205495,25.5079381 64.7665003,21.6119185 64.0270768,20.6649387" id="path10"></path>
                            <path d="M57.4198381,3.26904745 L57.4198381,1.01186315 C57.4198381,0.670258719 57.6792844,0.441081169 57.9906209,0.441081169 L68.0960603,0.441081169 C68.4203702,0.441081169 68.6798166,0.674583387 68.6798166,1.01186315 L68.6798166,2.9447399 C68.6754954,3.26904745 68.4030735,3.69281007 67.9187712,4.36304672 L62.6822772,11.8394315 C64.6281278,11.7918695 66.6820798,12.0815811 68.4463162,13.0761268 C68.8441331,13.3009798 68.9522364,13.6296119 68.9825046,13.9539228 L68.9825046,16.362452 C68.9825046,16.6910831 68.6192791,17.0759255 68.2387579,16.8770185 C65.1297228,15.2468285 61.000199,15.0695404 57.5625328,16.8943162 C57.2122808,17.0845778 56.8447321,16.7040566 56.8447321,16.3754225 L56.8447321,14.0879702 C56.8447321,13.7204215 56.8490533,13.0934225 57.216602,12.5356132 L63.2833281,3.83550626 L58.0035924,3.83550626 C57.6792844,3.83550626 57.4198381,3.6063306 57.4198381,3.26904745" id="path12"></path>
                            <path d="M20.5568106,17.3526695 L17.4823699,17.3526695 C17.1883321,17.3310517 16.9548298,17.1105219 16.9332079,16.8294517 L16.9332079,1.05078318 C16.9332079,0.735123189 17.1969795,0.484322891 17.5256106,0.484322891 L20.392494,0.484322891 C20.6908609,0.497286467 20.9286834,0.726472262 20.9503063,1.01186315 L20.9503063,3.07446566 L21.0065195,3.07446566 C21.7545894,1.08104901 23.1599235,0.151365606 25.0538841,0.151365606 C26.9781119,0.151365606 28.1802149,1.08104901 29.0450364,3.07446566 C29.7887831,1.08104901 31.4795086,0.151365606 33.2913119,0.151365606 C34.5798964,0.151365606 35.9895556,0.683230937 36.850054,1.87668507 C37.8229778,3.20418626 37.6240679,5.13273844 37.6240679,6.82346712 L37.6197467,16.7818897 C37.6197467,17.0975483 37.3559752,17.3526695 37.027344,17.3526695 L33.9572245,17.3526695 C33.6502152,17.3310517 33.4037414,17.0845778 33.4037414,16.7818897 L33.4037414,8.41906232 C33.4037414,7.75315023 33.4642748,6.09269225 33.3172579,5.46137056 C33.0880808,4.40196685 32.4005483,4.10360036 31.5097788,4.10360036 C30.7660321,4.10360036 29.987694,4.60087321 29.6720334,5.39651106 C29.3563728,6.19214712 29.3866421,7.5239697 29.3866421,8.41906232 L29.3866421,16.7818897 C29.3866421,17.0975483 29.1228715,17.3526695 28.7942384,17.3526695 L25.7241238,17.3526695 C25.4127874,17.3310517 25.1706368,17.0845778 25.1706368,16.7818897 L25.1663156,8.41906232 C25.1663156,6.65915096 25.4560272,4.06900818 23.272356,4.06900818 C21.0627338,4.06900818 21.1492162,6.59428659 21.1492162,8.41906232 L21.1492162,16.7818897 C21.1492162,17.0975483 20.8854447,17.3526695 20.5568136,17.3526695" id="path14"></path>
                            <path d="M77.3799238,0.151365606 C81.9418589,0.151365606 84.4109225,4.06900818 84.4109225,9.05038232 C84.4109225,13.8631142 81.6824076,17.6813017 77.3799238,17.6813017 C72.900146,17.6813017 70.4613477,13.7636593 70.4613477,8.88174159 C70.4613477,3.96955321 72.9304142,0.151365606 77.3799238,0.151365606 M77.4058669,3.37282868 C75.1400354,3.37282868 74.9973196,6.46023944 74.9973196,8.38447023 C74.9973196,10.3130225 74.9670695,14.4295728 77.3799238,14.4295728 C79.762507,14.4295728 79.8749354,11.1086603 79.8749354,9.08497281 C79.8749354,7.75315023 79.8187212,6.16187801 79.4165772,4.89923632 C79.0706483,3.80091586 78.3831179,3.37282868 77.4058669,3.37282868" id="path16"></path>
                            <path d="M90.3263046,17.3526695 L87.2648364,17.3526695 C86.9578232,17.3310517 86.7113493,17.0845778 86.7113493,16.7818897 L86.7070281,0.998890927 C86.7329732,0.709175474 86.9880974,0.484322891 87.2994318,0.484322891 L90.1490215,0.484322891 C90.4171132,0.497286467 90.637643,0.678907957 90.6981834,0.925382195 L90.6981834,3.33823321 L90.7543937,3.33823321 C91.614894,1.18050397 92.8213162,0.151365606 94.944454,0.151365606 C96.323845,0.151365606 97.6686437,0.648638851 98.5334652,2.01073222 C99.3377483,3.27337202 99.3377483,5.39651106 99.3377483,6.92291871 L99.3377483,16.8553997 C99.303157,17.1321397 99.0480328,17.3526695 98.7453487,17.3526695 L95.6622576,17.3526695 C95.3811884,17.3310517 95.1476861,17.1234944 95.1174209,16.8553997 L95.1174209,8.28501546 C95.1174209,6.55969609 95.3163288,4.0344144 93.1931901,4.0344144 C92.4451212,4.0344144 91.7575868,4.53601371 91.4159821,5.2970544 C90.9835728,6.26133308 90.9273586,7.2212852 90.9273586,8.28501546 L90.9273586,16.7818897 C90.9230374,17.0975483 90.6549407,17.3526695 90.3263096,17.3526695" id="path18"></path>
                            <path d="M49.3640225,9.81574927 C49.3640225,11.0135265 49.3942907,12.0123954 48.7889156,13.0761268 C48.3002921,13.9409513 47.521953,14.4728156 46.6614566,14.4728156 C45.4809745,14.4728156 44.7891169,13.5733987 44.7891169,12.2458977 C44.7891169,9.62548877 47.1371066,9.14983738 49.3640225,9.14983738 L49.3640225,9.81574927 M52.4644093,17.3094288 C52.2611781,17.4910411 51.9671354,17.5040126 51.7379593,17.3829397 C50.7174675,16.5354149 50.5315321,16.1419222 49.9737228,15.3333139 C48.2873195,17.0543076 47.0895397,17.5688752 44.9058656,17.5688752 C42.3157242,17.5688752 40.3050159,15.9732785 40.3050159,12.7777659 C40.3050159,10.2827533 41.6541397,8.58337858 43.5826917,7.75315023 C45.2517964,7.01804921 47.5824874,6.88832831 49.3640225,6.6850955 L49.3640225,6.28727752 C49.3640225,5.55650086 49.4202368,4.69167894 48.9878255,4.06036232 C48.6159526,3.49390182 47.898148,3.2603999 47.2625056,3.2603999 C46.0906709,3.2603999 45.0485632,3.86145079 44.7934391,5.10679391 C44.74155,5.38353874 44.5383189,5.65595752 44.2572487,5.66892974 L41.2779397,5.34894348 C41.0271397,5.29273311 40.7460745,5.08949702 40.8195844,4.70465444 C41.5027937,1.08969993 44.7718212,2.15642464e-05 47.6949159,2.15642464e-05 C49.1910586,2.15642464e-05 51.1455546,0.39784044 52.3260368,1.53075606 C53.8221765,2.92744301 53.6794828,4.79113391 53.6794828,6.81914255 L53.6794828,11.6102543 C53.6794828,13.0501848 54.2762096,13.681501 54.838343,14.459844 C55.0329308,14.7365841 55.0761715,15.0695404 54.8253586,15.2770977 C54.1983636,15.8003175 53.0827421,16.7732414 52.4687195,17.3180781 L52.4643983,17.3094159" id="path28"></path>
                            <path d="M9.05900791,9.81574927 C9.05900791,11.0135265 9.08927364,12.0123954 8.48390136,13.0761268 C7.99527437,13.9409513 7.22125967,14.4728156 6.35643775,14.4728156 C5.17595583,14.4728156 4.48842387,13.5733987 4.48842387,12.2458977 C4.48842387,9.62548877 6.83641391,9.14983738 9.05900791,9.14983738 L9.05900791,9.81574927 M12.1593924,17.3094288 C11.9561603,17.4910411 11.6621175,17.5040126 11.4329404,17.3829397 C10.4124536,16.5354149 10.2308384,16.1419222 9.66870477,15.3333139 C7.98230205,17.0543076 6.78885119,17.5688752 4.60084937,17.5688752 C2.01503126,17.5688752 -2.12697119e-07,15.9732785 -2.12697119e-07,12.7777659 C-2.12697119e-07,10.2827533 1.35344543,8.58337858 3.27767295,7.75315023 C4.94677848,7.01804921 7.27747321,6.88832831 9.05900791,6.6850955 L9.05900791,6.28727752 C9.05900791,5.55650086 9.11522156,4.69167894 8.68713437,4.06036232 C8.31093437,3.49390182 7.5931349,3.2603999 6.96181321,3.2603999 C5.78998232,3.2603999 4.74354576,3.86145079 4.48842387,5.10679391 C4.43653341,5.38353874 4.2333005,5.65595752 3.95655894,5.66892974 L0.972924258,5.34894348 C0.72212544,5.29273311 0.445382166,5.08949702 0.514567987,4.70465444 C1.20210159,1.08969993 4.46680242,2.15642464e-05 7.38990209,2.15642464e-05 C8.88604093,2.15642464e-05 10.8405377,0.39784044 12.0210199,1.53075606 C13.5171626,2.92744301 13.3744649,4.79113391 13.3744649,6.81914255 L13.3744649,11.6102543 C13.3744649,13.0501848 13.9711947,13.681501 14.5333291,14.459844 C14.7322371,14.7365841 14.7754778,15.0695404 14.5246768,15.2770977 C13.8976818,15.8003175 12.7820632,16.7732414 12.1680368,17.3180781 L12.1593944,17.3094159" id="path30"></path>
                        </g>
                    </g>
                </g>
            </g>
        </g>
    </g>
</svg>