<?xml version="1.0" encoding="UTF-8"?>
<svg width="64px" height="76px" viewBox="0 0 64 76" version="1.1" xmlns="http://www.w3.org/2000/svg" xmlns:xlink="http://www.w3.org/1999/xlink">
    <title>Apple_logo_black</title>
    <g id="Home" stroke="none" stroke-width="1" fill="none" fill-rule="evenodd">
        <g transform="translate(-1186.000000, -2897.000000)" fill="#000000" fill-rule="nonzero" id="Weaponise-CV">
            <g transform="translate(0.000000, 1669.000000)">
                <g id="Get-Hired" transform="translate(140.000000, 1228.000000)">
                    <g id="Logos" transform="translate(625.000000, 0.000000)">
                        <g id="Apple_logo_black" transform="translate(421.000000, 0.000000)">
                            <path d="M62.6586778,59.2119886 C61.5096237,61.8665403 60.1495174,64.3100398 58.5736704,66.5565614 C56.4256397,69.6191406 54.6668826,71.7390318 53.3114662,72.9162286 C51.2103379,74.8485166 48.9591277,75.8381102 46.5484563,75.8943918 C44.8178394,75.8943918 42.7307795,75.4019374 40.3013491,74.4029678 C37.8639462,73.4086766 35.6239917,72.9162286 33.5758592,72.9162286 C31.4278298,72.9162286 29.1240909,73.4086766 26.6599546,74.4029678 C24.1920634,75.4019374 22.2039648,75.9225326 20.6839283,75.974123 C18.372217,76.0726126 16.0680115,75.0548782 13.7680237,72.9162286 C12.3000486,71.635851 10.4639059,69.4409198 8.2642848,66.331435 C5.90426726,63.0109051 3.96400563,59.1603982 2.44396979,54.770539 C0.81606368,50.0289275 0,45.4373973 0,40.9921973 C0,35.9002421 1.10027898,31.5085064 3.30411962,27.8282466 C5.03614426,24.8721282 7.34035136,22.5402491 10.2242438,20.8283906 C13.1081389,19.1165346 16.2241888,18.2441909 19.5798995,18.1883784 C21.416041,18.1883784 23.8238995,18.75634 26.8161318,19.8725653 C29.7999232,20.9925422 31.7157971,21.5605038 32.5557786,21.5605038 C33.1837722,21.5605038 35.3121037,20.8963957 38.920137,19.5724046 C42.3321286,18.344557 45.2118003,17.836157 47.5708806,18.0364206 C53.9633798,18.5523234 58.765961,21.0722722 61.9598656,25.612212 C56.2427309,29.0762619 53.4146477,33.9280878 53.4709274,40.1522139 C53.5225178,45.0002875 55.2812749,49.0346427 58.7378202,52.2379291 C60.3042861,53.7246632 62.0536653,54.8737186 64.0000192,55.6897832 C63.5779232,56.9138779 63.1323712,58.0863835 62.6586778,59.2119886 Z M47.9976742,1.52004542 C47.9976742,5.31994494 46.6094259,8.86790033 43.8423155,12.151851 C40.5030182,16.0558261 36.4639744,18.311725 32.0839629,17.9557531 C32.0281523,17.4998824 31.9957907,17.0200942 31.9957907,16.5159176 C31.9957907,12.8680181 33.5838323,8.96404497 36.403943,5.77201662 C37.8118848,4.15583678 39.602535,2.8120051 41.7740154,1.7400051 C43.9408045,0.683999978 45.9903443,0.100006404 47.9179411,0 C47.9742253,0.507987204 47.9976742,1.01600638 47.9976742,1.51999614 L47.9976742,1.52004542 Z" id="path4"></path>
                        </g>
                    </g>
                </g>
            </g>
        </g>
    </g>
</svg>