<svg xmlns="http://www.w3.org/2000/svg" xmlns:xlink="http://www.w3.org/1999/xlink" width="252" height="214" viewBox="0 0 252 214">
  <defs>
    <path id="contact-a" d="M0 .033h239.709v165.61H0z"/>
  </defs>
  <g fill="none" fill-rule="evenodd">
    <path fill="#E1E5FA" d="M45.98 214C72.214 214 95 195.614 95 169.15 95 142.686 72.214 122 45.98 122S0 140.386 0 166.85C0 193.314 19.746 214 45.98 214z"/>
    <path fill="#FFF2CD" d="M182.856 130C219.859 130 252 104.02 252 66.625 252 29.231 219.86 0 182.856 0 145.853 0 118 25.98 118 63.375 118 100.769 145.853 130 182.856 130z"/>
    <g transform="translate(0 28)">
      <path fill="#B7C2F3" d="M67.182 5.373c-2.26.061-3.81.307-5.36.724-2.173.585-4.205 1.42-6.046 2.707-1.19.831-2.383 1.67-3.217 2.887-.396.578-.833 1.12-1.288 1.648a13.09 13.09 0 0 0-1.585 2.25c-.775 1.413-1.753 2.697-2.408 4.198-.414.948-.867 1.9-1.273 2.854-.755 1.776-1.364 3.614-2.038 5.424-.652 1.752-1.263 3.52-1.977 5.246-.98 2.369-1.783 4.8-2.668 7.203-.371 1.008-.563 2.076-.998 3.068-.28.636-.635 1.267-.767 1.937-.282 1.436-.948 2.754-1.211 4.186-.218 1.185-.843 2.234-1.056 3.426-.183 1.024-.554 2.013-.817 3.025-.389 1.5-.863 2.977-1.274 4.471-.242.88-.546 1.758-.734 2.645a43.963 43.963 0 0 1-.808 3.298c-.055.188-.133.362.05.52.36.31.582.76 1.014.997 1.319.728 2.296 1.882 3.492 2.77 1.884 1.397 3.627 2.995 5.971 3.64 1.224.336 2.427.75 3.655 1.065.92.236 1.87.354 2.798.557 1.272.278 2.569.366 3.852.555.55.082.782-.184.842-.781.035-.346.042-.691.093-1.039.228-1.533.452-3.067.623-4.607.31-2.8.578-5.604.87-8.405.138-1.32.34-2.635.424-3.957.137-2.179.174-4.364.305-6.544.128-2.118.378-4.23.472-6.349.123-2.788.415-5.562.568-8.346.06-1.075.283-2.134.212-3.223-.035-.528-.194-.855-.625-1.176-1.044-.778-1.766-1.833-2.154-3.067-.699-2.217-.81-4.473-.274-6.75.348-1.473 1.113-2.668 2.541-3.243 1.166-.47 2.39-.904 3.7-.482.361.115.805-.018 1.103.244.55.483 1.293.685 1.766 1.28.3.38.694.397 1.094.092.303-.23.612-.457.938-.653 1.331-.797 2.73-1.478 3.95-2.465.413-.333.813-.7 1.259-.993 1.23-.81 2.218-1.893 3.3-2.87.435-.391.717-.88 1.013-1.37.323-.538.259-1.04-.092-1.507-.385-.512-.671-1.073-.96-1.638-.276-.536-.583-1.047-1.053-1.456-.587-.51-1.381-.652-1.978-1.106-1.186-.9-2.543-.886-3.244-.89M196.795 95.76c-.227.134-.314.173-.387.23-.565.429-1.175.797-1.901.781-.905-.02-1.617-.67-2.479-.863-.076-.017-.129-.135-.193-.205-.71-.768-1.444-1.516-2.122-2.312-.56-.655-1.076-1.38-.998-2.295.081-.942.207-1.887.512-2.791.607-1.799 1.15-3.619 1.832-5.393.248-.647.193-.67-.47-.793-1.586-.296-3.192-.51-4.752-.908-1.774-.452-3.582-.876-5.1-2.001-.237-.175-.528-.228-.808-.272a25.597 25.597 0 0 0-1.797-.23c-2.437-.207-4.884-.27-7.317-.542-.41-.045-.828-.083-1.235.03-.439.124-.89.133-1.327.062-.95-.156-1.897.012-2.844.008a95.585 95.585 0 0 0-6.857.23c-.412.027-.827 0-1.24.006-.447.008-.725.237-.78.678-.178 1.447-.698 2.82-.906 4.261-.11.76-.137.784.597 1.005.975.292 1.95.576 2.885.982 1.508.654 3.07 1.168 4.579 1.826 1.028.45 1.952 1.055 2.943 1.55.403.202.735.568.878.978.384 1.107.694 2.205.202 3.414-.44 1.081-.793 2.207-1.142 3.323-.357 1.146-.501 2.355-.807 3.52-.313 1.193-.497 2.417-.908 3.588a11.22 11.22 0 0 0-.523 2.12c-.137.938-.295 1.884-.57 2.788-.704 2.306-.977 4.707-1.638 7.023-.216.756-.503 1.505-.63 2.276-.16.969-.418 1.902-.66 2.848-.708 2.76-1.383 5.528-2.3 8.23-.111.326-.163.68-.187 1.026-.026.384-.094.75-.205 1.118-.368 1.21-.836 2.405-1.06 3.643-.407 2.256-1.443 4.313-1.928 6.547-.267 1.227-.65 2.44-.946 3.668-.31 1.29-.605 2.59-1.034 3.843-.226.658-.111 3.212-.829 3.733-.718.521-2.328.12-3.475-.361-.588-.246-1.313-.176-1.977-.238-.701-.066-.754-.033-.776.701-.05 1.741-.072 3.483-.122 5.224-.008.274.061.477.341.435.576-.088 1.128.125 1.708.055 1.803-.219 3.618-.07 5.422-.03 1.17.026 2.342-.036 3.513-.004 1.13.032 2.284-.075 3.424-.061 2.606.032 5.216.103 7.816.062 2.891-.045 5.782.031 8.672-.057 1.024-.03 2.037.232 3.043.146 1.713-.148 3.422-.003 5.133-.055 2.504-.076 5.01.13 7.522-.001 1.037-.054 2.098-.076 3.136-.009 1.304.084 2.604.013 3.905.06.749.027.854-.072.753-.807-.082-.597-.075-1.199-.154-1.79-.266-1.981-.332-3.97-.326-5.965.002-.596.008-.603-.634-.658-.473-.041-.947-.029-1.423-.108a212.185 212.185 0 0 0-6.12-.943c-1.98-.27-3.983-.393-5.937-.84-1.485-.34-3.007-.432-4.506-.694-1.263-.22-2.584-.201-3.85-.465-1.082-.227-2.191-.268-3.264-.543-.396-.101-.798-.231-1.22-.195-1.104.095-2.132-.311-3.195-.482a1.024 1.024 0 0 1-.844-.691 2.745 2.745 0 0 1-.095-1.591c.116-.486.422-.77.95-.765.92.01 1.837-.04 2.762.078.853.11 1.68.37 2.535.415 1.264.065 2.511.233 3.76.412.535.077 1.067.175 1.6.255 1.005.15 2.026.156 3.022.337 1.335.245 2.665.498 4.023.579.38.023.759.074 1.135.134 1.63.26 3.258.543 4.89.79 1.942.293 3.89.547 5.83.846.39.06.538-.05.551-.415.006-.158.014-.316.018-.475.06-2.494.165-4.987.167-7.481.002-3.584.279-7.153.47-10.727.105-1.961.301-3.921.322-5.883.014-1.298.087-2.593.139-3.887.074-1.867-.025-3.74.176-5.602.15-1.391-.14-2.778-.002-4.172.094-.963-.145-1.878-.649-2.727-.47-.79-.83-1.65-1.35-2.404-.371-.539-.54-1.25-1.148-1.597-.408-.234-.524-.569-.645-.983-.33-1.127-.372-2.3-.574-3.553"/>
      <path fill="#FFF" d="M72.542 101.904c-.468 0-1.104-.016-1.74.005-.566.017-.876-.31-1.113-.75-.101-.188-.08-.415.126-.49.656-.236 1.227-.734 1.94-.765 1.082-.046 2.126-.368 3.213-.372.537-.001 1.1 0 1.606-.149 1.288-.38 2.598-.517 3.927-.635.823-.072 1.647-.123 2.47-.196.664-.059 1.323-.248 1.512-.947.226-.83.538-1.722-.062-2.532-.2-.27-.518-.467-.868-.56-.368-.098-.745-.156-1.118-.23-1.205-.242-2.406-.046-3.605-.006-.577.02-1.136-.184-1.704-.08-1.248.23-2.492.523-3.771.389-.876-.093-1.672.353-2.528.312-1.002-.049-1.942.314-2.876.533-1.038.242-2.112.417-3.126.796-.41.153-.835.3-1.3.254a.989.989 0 0 0-.844.359c-.176.21-.384.325-.617.419-.76.306-1.395.842-2.183 1.11-.876.297-1.575.945-2.4 1.341-1.404.674-2.78 1.388-4.089 2.231-.614.397-1.21.838-1.866 1.15-1.403.67-2.495 1.719-3.593 2.766-.943.899-1.754 1.92-2.689 2.83-1.43 1.393-2.889 2.771-4.086 4.372-.827 1.105-1.945 1.897-2.87 2.896-1.115 1.202-2.434 2.205-3.553 3.418a124.267 124.267 0 0 1-4.909 5.036c-1.782 1.724-3.428 3.572-5.197 5.304-.444.435-.94.637-1.495.763-.616.14-.904-.084-.961-.708a2.823 2.823 0 0 1 .737-2.199 150.45 150.45 0 0 1 4.02-4.28c.273-.28.346-.474.19-.813-.498-1.077-.623-2.254-.835-3.398-.553-2.987-.898-6.006-1.514-8.987-.57-2.757-1.086-5.526-1.735-8.265a226.028 226.028 0 0 0-2.292-8.83c-.587-2.097-1.297-4.161-2.037-6.214-.261-.723-.667-1.365-.974-2.06-.677-1.533-1.306-3.089-2.234-4.507-.368-.562-.893-.975-1.224-1.568-.347-.619-.619-.61-1.06-.027A249.957 249.957 0 0 0 10 82.98c-.649.899-1.363 1.774-1.855 2.757-.647 1.297-1.279 2.6-1.954 3.884-.902 1.715-1.412 3.576-1.985 5.415-.183.586-.163 1.195-.323 1.768-.385 1.38-.51 2.8-.648 4.207-.193 1.952-.004 3.927-.208 5.885-.016.156-.008.32.018.474.236 1.38.19 2.781.266 4.168.095 1.748.452 3.45.632 5.18.103 1.005.428 1.987.539 2.991.209 1.9.743 3.726 1.18 5.573.153.645.437 1.258.517 1.924.172 1.427.93 2.678 1.229 4.066.013.06.052.115.08.172.485 1 .82 2.057 1.188 3.101.324.922.642 1.846.992 2.759.419 1.093.93 2.153 1.352 3.241.883 2.277 1.892 4.49 2.954 6.687 1.177 2.436 2.431 4.817 4.312 6.794.885.93 1.506 2.077 2.656 2.805 1.296.82 2.53 1.62 4.116 1.82 3.643.462 6.599-.707 9.026-3.415.894-.996 1.646-2.087 2.423-3.164.742-1.026 1.492-2.059 2.162-3.123 1.05-1.666 2.368-3.13 3.417-4.793 1.046-1.656 2.212-3.236 3.316-4.856.214-.313.335-.7.588-.972.696-.752 1.119-1.684 1.714-2.503.818-1.125 1.51-2.34 2.383-3.434.71-.89 1.402-1.816 1.999-2.77.92-1.476 1.738-3.017 2.733-4.451.286-.413.591-.822.68-1.348.056-.333.345-.497.613-.686.95-.672 2.092-.904 3.132-1.364 1.01-.446 2.083-.835 3.167-1.013 1.558-.254 3.125-.528 4.738-.382.548.05 1.133.14 1.693.06 2.007-.287 3.992.042 5.985.158 1.36.08 1.39.313 2.747.054.6-.114 1.2-.145 1.8-.187 1.306-.09 2.928-.71 3.252-1.996.326-1.294 1.708-2.857 2.168-3.535 1.044-1.54 1.795-1.772 1.795-4.036 0-3.287 2.213-5.118 1.968-8.229-.092-1.164-.637-1.774-1.724-1.87-.22-.02-.447.004-.666.033-1.82.238-3.67.234-5.468.656-.092.021-.19.02-.286.018-1.525-.006-3.047.051-4.561.25-1.043.137-2.089.21-3.31.15m76.534 47.142c.406.12.6-.204.774-.632.455-1.11.358-2.392 1.084-3.418.064-.09.03-.247.05-.372.315-1.978.788-3.931 1.505-5.788.755-1.954 1.261-3.975 1.868-5.965.719-2.351 1.18-4.779 1.856-7.148.573-2.009 1.104-4.029 1.645-6.047.343-1.282.668-2.57 1.002-3.854.382-1.466.798-2.924 1.137-4.4.298-1.293.576-2.59.907-3.876.347-1.347.552-2.734.961-4.06.524-1.698.837-3.444 1.279-5.16.29-1.13.492-2.29.969-3.354.34-.76.489-1.569.78-2.337.126-.333.093-.588-.266-.794-1.356-.782-2.626-1.727-4.206-2.061a5.44 5.44 0 0 1-1.262-.426c-1.6-.787-3.294-1.314-4.997-1.818-1.002-.296-2.019-.53-3.013-.86a13.59 13.59 0 0 0-2.319-.535c-1.536-.224-3.088-.357-4.587-.79-2.587-.75-5.191-1.448-7.665-2.543-.986-.437-2.084-.59-3.021-1.16a.593.593 0 0 0-.37-.052c-.35.053-.592-.153-.88-.283-.98-.441-1.95-.992-2.985-1.206-1.304-.27-2.625-.459-3.9-.866-.412-.131-.652-.003-.77.438-.251.95-.574 1.88-.807 2.835-.459 1.877-1.118 3.694-1.597 5.568-.516 2.017-1.275 3.967-2.113 5.88a3.83 3.83 0 0 0-.2.633c-.315 1.293-.773 2.543-1.16 3.813-.795 2.601-1.652 5.19-2.268 7.834-.597 2.559-1.454 5.049-1.93 7.633-.283 1.528-.738 3.009-1.18 4.492-.28.938-.634 1.852-.86 2.808-.291 1.23-.572 2.465-1.18 3.594a1.63 1.63 0 0 0-.18.638c-.07 1.001-.417 1.913-.845 2.806-.11.227-.247.473-.25.713-.019 1.253-.63 2.362-.865 3.57-.36 1.853-.72 3.732-1.387 5.52-.15.402.028.538.37.566 1.56.124 3 .802 4.553.965.92.096 1.802.378 2.69.63.43.122.544.01.43-.413-.197-.735-.466-1.458-.452-2.229a7.709 7.709 0 0 0-.239-1.974 7.248 7.248 0 0 1-.126-2.914c.184-1.145.77-1.974 1.705-2.599.237-.158.516-.258.74-.432 1.52-1.188 3.359-1.724 5.09-2.481 1.025-.449 2.12-.622 3.193-.897 1.257-.322 2.506-.318 3.773-.268.38.016.76.001 1.125.157 1.701.727 3.341 1.52 4.545 3.015.361.449.604.972.988 1.388.974 1.06 1.705 2.282 2.363 3.544.996 1.907 1.905 3.86 2.912 5.76.756 1.428 1.482 2.856 2.09 4.36.507 1.255 1.198 2.437 1.491 3.778.07.32.251.472.578.533 1.094.206 2.187.412 3.427.54m75.843-55.005c-.03.54-.403.927-.465 1.443-.274 2.295-.856 4.534-1.263 6.805-.1.56-.103 1.161-.32 1.674-.36.86-.486 1.787-.618 2.662-.33 2.192-.656 4.387-1.1 6.556-.284 1.382-.344 2.844-1.151 4.086-.113.173-.1.353-.083.547.137 1.577.227 3.158.516 4.718.075.403.158.802.211 1.212.159 1.22.202 2.485.515 3.653.587 2.19.652 4.44 1.057 6.646.291 1.585.43 3.203.816 4.768.253 1.025.101 2.008-.004 3.007-.037.35-.188.671-.578.803-1.287.437-2.38-.177-2.503-1.515-.138-1.487-.549-2.92-.743-4.398-.21-1.592-.465-3.183-.657-4.78-.068-.567-.05-1.156-.207-1.697-.504-1.748-.574-3.554-.802-5.338-.08-.628-.06-1.272-.24-1.884-.42-1.407-.253-2.894-.604-4.31-.015-.06-.002-.127-.01-.19-.167-1.283-.292-2.573-.514-3.847-.303-1.738-.433-3.5-.817-5.23-.294-1.321-.452-2.669-.537-4.033-.102-1.637-.514-3.249-.602-4.897a2.254 2.254 0 0 0-.13-.65c-.55-1.5-.754-3.075-.996-4.64-.202-1.311-.298-2.641-.548-3.943-.174-.902-.379-1.794-.48-2.71-.129-1.165-.271-2.327-.508-3.48-.26-1.27-.396-2.566-.622-3.844-.271-1.532-.286-3.104-.59-4.619-.567-2.833-.73-5.71-1.135-8.56a43.96 43.96 0 0 1-.423-4.627c-.025-.688-.008-1.43-.287-2.192a6.272 6.272 0 0 1-1.94 1.133c-.492.185-.686.478-.758.965-.052.348-.099.694-.056 1.039.08.634.041 1.264.003 1.897-.081 1.324-.207 2.647-.07 3.975.074.706.109.74.83.58.123-.026.245-.066.37-.092.671-.135 1.025.058 1.259.683.29.775.015 1.384-.729 1.811-1.004.577-2.14.793-3.197 1.224-.88.358-1.785.655-2.648 1.048a99.14 99.14 0 0 0-3.924 1.912c-.67.343-1.532.505-1.894 1.207-.476.926-1.005 1.838-1.314 2.847-.5 1.634-1.175 3.212-1.587 4.874-.32 1.29-.618 2.586-.944 3.875-.113.443.001.763.297 1.12a29.29 29.29 0 0 0 1.87 2.024c.48.48.452.463.974.095 1.425-1.005 2.743-2.151 4.243-3.064a3.117 3.117 0 0 1 1.689-.48c.59-.003.939.298 1.073.875.207.89-.133 1.636-1.014 1.996-.774.315-1.19.85-1.204 1.653-.016.82.141 1.637.039 2.464-.025.2.085.437.183.63a59.602 59.602 0 0 0 2.957 5.206c.759 1.184 1.1 2.494 1.133 3.878.04 1.678.043 3.358.021 5.037-.029 2.183-.078 4.365-.313 6.54a10.07 10.07 0 0 0-.052 1.805c.122 1.679-.08 3.345-.15 5.016-.081 1.93-.284 3.858-.313 5.788a235.57 235.57 0 0 1-.196 6.73c-.075 1.737.033 3.47-.074 5.204a38.47 38.47 0 0 0-.01 4.364c.069 1.3-.073 2.598.035 3.888.082.98.155 1.96.159 2.94.007 1.896.506 3.694 1.037 5.487.07.24.18.502.351.67.82.803 1.799 1.485 2.866 1.773 1.813.49 3.702.584 5.533-.06 1.171-.413 2.294-.93 3.194-1.822.477-.472 1.033-.84 1.563-1.246 1.233-.942 2.453-1.9 3.375-3.179.69-.956 1.144-2.043 1.723-3.059.304-.533.768-.933 1.029-1.47.885-1.825 1.936-3.566 2.839-5.371.845-1.692 1.839-3.32 2.516-5.098.124-.325.252-.653.414-.96 1.316-2.495 2.357-5.114 3.455-7.706.234-.55.629-1.029.72-1.645.143-.973.476-1.9.724-2.847.513-1.96 1.046-3.913 1.257-5.94.125-1.196.201-2.402.38-3.582.187-1.24.102-2.469.048-3.68-.064-1.409-.132-2.833-.404-4.242-.365-1.887-.468-3.83-1.458-5.55-.062-.109-.09-.237-.13-.357-.213-.63-.58-1.183-.906-1.754-.87-1.52-2.09-2.78-3.164-4.146-.533-.679-1.045-1.446-1.898-1.834-.16-.072-.25-.285-.395-.403-.898-.729-1.671-1.658-2.995-1.862M106.574 129.45c.078-.166.167-.276.179-.394.16-1.623.989-3.052 1.349-4.615.256-1.114.56-2.208 1.033-3.253.09-.199.146-.425.16-.642.065-.964.375-1.87.727-2.748.496-1.236.934-2.514 1.145-3.799.424-2.576 1.337-5.01 1.971-7.522.47-1.864.887-3.76 1.634-5.552.097-.232.137-.488.21-.73a1.18 1.18 0 0 0-.078-.92c-.657-1.303-1.171-2.656-1.672-4.03-.583-1.597-1.278-3.17-1.984-4.727-.924-2.04-1.815-4.093-2.79-6.113-.993-2.054-2.184-3.99-3.296-5.972-.666-1.186-1.268-2.408-1.996-3.563-.715-1.133-1.313-2.33-2.119-3.42-.87-1.176-1.812-2.266-2.889-3.247-.958-.873-1.954-1.705-2.906-2.586-.585-.541-1.231-.984-1.873-1.45-.835-.604-1.855-.833-2.654-1.47-.325-.26-.715-.393-1.073-.584-.789-.419-1.662-.613-2.446-1.03-.867-.459-1.751-.886-2.634-1.314-.457-.222-.926-.42-1.393-.62-.147-.063-.319-.1-.455.004-.158.122-.095.31-.02.435.316.525.376 1.15.652 1.679.94 1.802 1.6 3.722 2.35 5.6.643 1.614 1.27 3.24 2.006 4.808a64.918 64.918 0 0 1 2.993 7.587c.812 2.503 1.784 4.945 2.704 7.401 1.189 3.173 2.218 6.397 3.277 9.608.66 2.004 1.09 4.102 1.407 6.208.147.975.157 1.96.303 2.928.544 3.6-.3 6.852-2.389 9.799-.314.442-.337.764 0 1.176.864 1.055 1.704 2.13 2.557 3.193 1.247 1.559 2.435 3.169 3.762 4.657 1.476 1.656 2.661 3.535 4.248 5.219M72.817 12.343c-.535.309-.675.73-.971 1.01-2.027 1.925-4.185 3.692-6.554 5.181-1.284.807-2.655 1.473-3.986 2.202-.814.446-1.532.426-2.365.22-.924-.227-1.644-.789-2.43-1.257-1.33-.79-2.957-.16-3.467 1.293-.193.551-.197 1.123-.252 1.689-.221 2.28.255 4.295 2.312 5.64.644.422.839 1.017.818 1.709-.026.884-.05 1.768-.079 2.65-.066 2.024-.361 4.036-.318 6.067a1.28 1.28 0 0 1-.021.284c-.277 1.315-.113 2.652-.202 3.977-.088 1.326-.088 2.663-.255 3.98a33.316 33.316 0 0 0-.226 3.121c-.07 2.122-.091 4.245-.285 6.36-.2 2.173-.444 4.343-.668 6.514-.063.605.028.685.628.81.63.132 1.264.036 1.895.077.817.053 1.644-.005 2.464-.057.854-.053 1.703-.19 2.557-.229 1.273-.057 2.535-.218 3.795-.383.75-.099.952-.556.597-1.225a2.478 2.478 0 0 0-.271-.39c-.9-1.11-1.83-2.183-3.254-2.658-.712-.237-1.015-.732-1.121-1.487-.094-.67.163-1.248.227-1.871.12-1.164.26-2.33.492-3.476.27-1.34.273-2.71.566-4.043.094-.427-.11-.65-.492-.787-.49-.176-.997-.175-1.506-.2-.87-.043-1.386-.474-1.486-1.205-.122-.887.228-1.41 1.12-1.713a2.473 2.473 0 0 1 1.31-.089c.528.103 1.037.313 1.593.268.833-.067 1.653.047 2.457.256 1.418.369 2.888.38 4.323.637.56.1.73-.08.865-.605.505-1.96.676-3.98 1.135-5.953.28-1.202.52-2.413.877-3.595.198-.655.47-.828 1.117-.76 1.642.174 3.279.273 4.908-.115.327-.078.446-.161.264-.504-.534-1.005-1.06-2.015-1.6-3.017-.87-1.616-1.617-3.296-2.62-4.84-.281-.434-.43-.905-.391-1.44.035-.473.083-.964-.004-1.423-.249-1.314-.235-2.652-.204-3.962.055-2.308-.771-4.391-1.292-6.66"/>
      <path fill="#FFF" d="M128.175 128.977c-1.08.046-2.135.28-3.18.532-.487.117-1.002.151-1.46.409-1.517.849-3.147 1.468-4.65 2.354-.827.488-1.212.932-1.001 1.925.34 1.607.42 3.248.83 4.851.572 2.24 1.156 4.447 2.04 6.604.822 2.002 2.215 3.406 3.912 4.508 1.768 1.148 3.615 2.177 5.74 2.69 1.233.297 2.449.637 3.712.786.437.052.854.25 1.315.121.886-.247 1.812-.255 2.713-.475 1.32-.323 2.495-.851 3.577-1.665.617-.464.699-1.013.547-1.673-.34-1.474-.652-2.94-1.42-4.297-.887-1.566-1.598-3.23-2.406-4.841-.948-1.892-2.072-3.697-2.79-5.701a.833.833 0 0 0-.193-.325c-1.168-1.084-1.711-2.626-2.875-3.742-1.267-1.215-2.566-2.163-4.41-2.06m64.03-60.295c.477 0 .954.004 1.43-.001.254-.003.506-.008.748-.116 1.364-.608 2.696-1.241 3.765-2.344.86-.889 1.75-1.75 2.46-2.766.385-.553.34-.652-.246-.91a32.716 32.716 0 0 0-1.407-.586c-1.407-.545-2.491-1.471-3.357-2.696-.541-.766-.897-1.593-1.144-2.489-.474-1.728-.728-3.459-.194-5.22.06-.199.079-.387-.088-.52-.206-.165-.453-.246-.706-.102-.107.062-.184.173-.28.257-1.603 1.406-3.351 2.414-5.57 2.622-1.553.146-3.033.103-4.502-.377-.45-.147-.871-.382-1.319-.54-.548-.195-.656-.122-.741.469-.1.689-.146 1.387-.273 2.07-.348 1.88-.56 3.71.164 5.6.508 1.326.883 2.689 1.618 3.93.8 1.35 1.983 2.237 3.37 2.8 1.996.812 4.135.926 6.272.92m-12.403-24.011c-.215.733.343 1.567.694 2.357.68 1.528 1.867 2.616 3.495 3.255 2.163.85 4.083.296 5.973-.75.692-.382 1.098-1.02 1.532-1.644.823-1.184 1.272-2.489 1.133-3.923-.242-2.495-1.549-4.261-3.82-5.363-.683-.332-1.435-.265-2.105-.548-.368-.156-.721-.149-1.108-.149-.91 0-1.665.392-2.39.846-2.093 1.31-3.338 3.133-3.404 5.919m23.449 15.093c.874.101 1.726-.215 2.606-.664.716-.364 1.118-1.02 1.75-1.426.54-.35.8-.867 1.034-1.43.32-.768.33-1.602.539-2.394.084-.324.09-.74-.127-1.014-.508-.642-.546-1.452-.865-2.157-.077-.171-.133-.367-.254-.503-.886-1.003-1.865-1.866-3.238-2.161-.555-.12-1.09-.33-1.64-.475a2.973 2.973 0 0 0-1.598.02c-2.16.618-3.51 2.12-4.307 4.111-.32.797-.493 1.677-.344 2.6.282 1.743 1.154 3.107 2.471 4.225.31.262.6.536.995.714.92.416 1.876.545 2.978.554m2.244-15.002c.108-.423-.168-.653-.28-.933-.516-1.287-1.045-2.568-1.562-3.854-.401-.997-.817-1.99-1.177-3.002-.162-.457-.45-.576-.87-.53-.85.091-1.699.109-2.555.12-1.71.02-3.42.154-5.13.232-.349.015-.7-.016-1.048-.015-.124 0-.266.01-.32.151a.254.254 0 0 0 .119.326c.538.28.754.839 1.125 1.263 1.523 1.74 2.023 3.855 2.027 6.059.003 1.034-.027 2.158-.59 3.132-.106.183-.11.374.078.504.215.149.44.114.586-.098.297-.427.785-.644 1.116-1.011 1.006-1.116 2.296-1.665 3.717-1.954.79-.16 1.64-.026 2.35-.564.123-.094.371-.018.56-.039.63-.066 1.24.095 1.854.213"/>
      <path fill="#B7C2F3" d="M218.82 109.859c.062-.243.158-.482.181-.728.25-2.69 1.168-5.253 1.485-7.932.085-.717.387-1.405.531-2.118.225-1.115.38-2.245.602-3.361.197-.992.442-1.975.67-2.96.06-.255.125-.505-.145-.684-.924-.617-1.813-1.299-2.786-1.83-.95-.518-1.858-1.075-2.668-1.786-.499-.439-1.07-.753-1.824-1.172 1.406 7.614 2.314 15.138 3.954 22.57"/>
      <path fill="#FFF" d="M203.233 65.212l-.25-.135c-.063.112-.122.227-.19.336-.85 1.4-2.093 2.452-3.232 3.594-.794.797-1.8 1.294-2.803 1.758-.51.236-.997.572-1.584.634-1.072.115-2.142.212-3.226.232-1.535.029-3.038-.18-4.544-.381-.873-.117-1.758-.193-2.55-.695-.547-.347-1.181-.559-1.763-.824-.058.076-.093.1-.093.126-.006.505-.015 1.01-.008 1.516.014 1.005.336 1.443 1.328 1.684.656.16 1.272.4 1.864.709 1.14.593 2.39.886 3.62 1.132.928.185 1.889.31 2.76.631.873.323 1.673.2 2.385-.142a114.57 114.57 0 0 1 2.493-1.15c1.614-.727 3.174-1.577 4.84-2.183.428-.155.622-.359.624-.804.003-.823.045-1.647.049-2.47.005-1.195.16-2.38.28-3.568M73.717 43.486l-.085-.034c-.11.905-.224 1.81-.329 2.715-.137 1.18-.835 2.104-1.76 2.208-.626.07-1.28.157-1.896-.006-1.235-.324-2.527-.16-3.76-.5-.527-.144-.685.008-.792.531-.362 1.77-.373 3.582-.65 5.362-.054.339.114.479.411.49 1.265.052 2.536.198 3.791.112 2.22-.154 4.431-.25 6.648-.013.713.076.771.01.682-.682-.175-1.355-.645-2.64-.926-3.969-.437-2.073-.888-4.143-1.334-6.214M144.5 81.777l.029.202c.868-.043 1.659.296 2.479.408 1.596.22 3.207.324 4.738.886.249.09.504.013.755-.012a.37.37 0 0 0 .336-.291c.338-1.251.678-2.502 1.006-3.755.117-.448-.138-.563-.53-.525-.567.054-1.135.109-1.703.16-1.923.17-3.74.717-5.426 1.633-.615.334-1.125.857-1.684 1.294"/>
      <g transform="translate(0 .324)">
        <mask id="contact-b" fill="#fff">
          <use xlink:href="#contact-a"/>
        </mask>
        <path fill="#000" d="M144.5 81.453l.029.202c.868-.042 1.659.296 2.479.408 1.596.22 3.207.324 4.738.886.249.09.504.013.755-.012a.37.37 0 0 0 .336-.29c.338-1.252.678-2.503 1.006-3.756.117-.448-.138-.563-.53-.525-.567.055-1.135.109-1.703.16-1.923.17-3.74.717-5.426 1.633-.615.334-1.125.857-1.684 1.294m-70.783-38.29l-.085-.035c-.11.905-.223 1.81-.329 2.716-.137 1.179-.835 2.104-1.759 2.207-.627.07-1.28.157-1.897-.005-1.235-.325-2.527-.161-3.76-.5-.527-.145-.685.008-.791.53-.363 1.77-.374 3.582-.652 5.362-.052.34.115.48.413.49 1.263.052 2.535.199 3.79.112 2.22-.154 4.431-.25 6.648-.013.713.076.771.01.682-.681-.175-1.356-.645-2.64-.926-3.97-.437-2.072-.888-4.143-1.334-6.214m129.516 21.726l-.25-.135c-.063.112-.122.227-.189.336-.85 1.4-2.094 2.452-3.233 3.594-.794.797-1.8 1.295-2.802 1.758-.51.236-.998.572-1.584.634-1.073.115-2.143.212-3.227.232-1.535.03-3.038-.18-4.544-.381-.873-.117-1.758-.193-2.55-.694-.547-.348-1.182-.56-1.763-.825-.058.076-.093.1-.093.126-.006.505-.015 1.01-.008 1.516.014 1.005.336 1.443 1.328 1.684.656.16 1.272.4 1.864.71 1.14.592 2.39.885 3.62 1.13.928.186 1.889.31 2.76.632.873.323 1.673.2 2.385-.142a113.11 113.11 0 0 1 2.493-1.15c1.614-.726 3.173-1.577 4.84-2.182.428-.156.623-.36.624-.805.003-.823.045-1.646.049-2.47.005-1.195.16-2.38.28-3.568m15.587 44.647c.062-.243.159-.482.181-.728.25-2.69 1.168-5.253 1.485-7.932.085-.717.387-1.405.53-2.118.226-1.115.382-2.245.603-3.361.197-.992.442-1.975.67-2.96.059-.255.125-.505-.145-.684-.924-.617-1.814-1.299-2.785-1.83-.95-.518-1.86-1.074-2.67-1.786-.498-.439-1.068-.753-1.823-1.172 1.406 7.615 2.314 15.138 3.954 22.571M205.496 44.44c.107-.423-.167-.652-.28-.933-.515-1.287-1.045-2.568-1.562-3.853-.401-.998-.817-1.99-1.176-3.003-.163-.457-.45-.576-.87-.53-.85.092-1.7.11-2.556.12-1.71.02-3.42.154-5.13.232-.349.016-.699-.016-1.048-.014-.124 0-.265.008-.32.15a.254.254 0 0 0 .119.326c.538.28.753.839 1.125 1.263 1.523 1.74 2.023 3.855 2.027 6.059.003 1.034-.028 2.158-.59 3.132-.106.183-.11.374.078.504.215.149.439.115.586-.098.297-.426.785-.644 1.116-1.011 1.006-1.115 2.296-1.665 3.717-1.954.79-.16 1.64-.026 2.35-.564.124-.094.371-.018.56-.038.63-.067 1.24.094 1.854.212m-2.244 15.002c.875.101 1.726-.215 2.606-.663.716-.365 1.118-1.02 1.75-1.427.54-.35.8-.867 1.034-1.429.32-.769.33-1.602.538-2.395.085-.323.091-.74-.126-1.013-.508-.643-.546-1.452-.865-2.157-.077-.172-.133-.367-.254-.503-.887-1.003-1.865-1.867-3.238-2.162-.555-.12-1.09-.33-1.64-.474a2.973 2.973 0 0 0-1.598.02c-2.16.618-3.51 2.118-4.308 4.11-.319.797-.492 1.677-.343 2.601.282 1.742 1.154 3.107 2.472 4.224.308.262.6.536.994.714.92.416 1.876.545 2.978.554m-23.45-15.093c-.214.733.345 1.567.695 2.357.68 1.529 1.867 2.616 3.495 3.255 2.164.85 4.083.296 5.973-.75.692-.382 1.098-1.02 1.531-1.644.824-1.184 1.274-2.489 1.134-3.923-.242-2.495-1.549-4.26-3.82-5.363-.683-.331-1.435-.265-2.105-.548-.368-.156-.721-.149-1.108-.149-.91 0-1.665.392-2.39.847-2.093 1.309-3.338 3.133-3.404 5.918m12.403 24.01c.477 0 .954.004 1.43 0 .254-.003.506-.008.748-.116 1.363-.609 2.696-1.242 3.765-2.345.86-.889 1.75-1.75 2.46-2.766.385-.553.34-.652-.245-.91a33.374 33.374 0 0 0-1.408-.586c-1.407-.545-2.492-1.47-3.357-2.696-.541-.765-.897-1.593-1.143-2.489-.475-1.727-.729-3.458-.195-5.22.06-.198.079-.387-.088-.52-.206-.165-.453-.246-.706-.102-.108.062-.184.173-.28.257-1.604 1.406-3.351 2.414-5.57 2.622-1.554.146-3.033.104-4.502-.377-.45-.147-.871-.382-1.319-.54-.548-.195-.656-.122-.741.469-.1.689-.146 1.387-.273 2.07-.348 1.88-.56 3.71.164 5.6.508 1.326.883 2.69 1.618 3.931.8 1.35 1.983 2.236 3.37 2.8 1.996.811 4.135.925 6.272.918m-64.03 60.295c-1.082.046-2.135.28-3.18.531-.488.117-1.003.151-1.462.41-1.516.848-3.146 1.467-4.649 2.354-.827.488-1.212.931-1.001 1.924.34 1.608.42 3.248.83 4.852.572 2.24 1.155 4.447 2.04 6.603.822 2.002 2.215 3.407 3.912 4.508 1.768 1.148 3.615 2.177 5.739 2.69 1.234.297 2.45.637 3.713.787.437.051.854.248 1.316.12.885-.246 1.81-.255 2.712-.475 1.32-.323 2.495-.851 3.577-1.665.617-.464.699-1.013.547-1.673-.34-1.474-.652-2.94-1.42-4.296-.887-1.567-1.598-3.23-2.406-4.842-.949-1.892-2.072-3.697-2.79-5.701a.832.832 0 0 0-.193-.325c-1.168-1.083-1.711-2.626-2.875-3.742-1.267-1.215-2.566-2.163-4.41-2.06M72.815 12.019c-.534.309-.674.73-.97 1.011-2.027 1.925-4.185 3.692-6.554 5.18-1.284.807-2.654 1.473-3.986 2.202-.814.446-1.532.426-2.365.22-.924-.227-1.644-.789-2.43-1.256-1.33-.79-2.958-.161-3.467 1.292-.193.551-.197 1.123-.251 1.689-.222 2.28.254 4.295 2.311 5.64.644.422.838 1.018.818 1.71-.026.883-.05 1.768-.079 2.65-.066 2.023-.361 4.036-.318 6.066a1.28 1.28 0 0 1-.021.285c-.277 1.315-.113 2.652-.202 3.976-.088 1.327-.088 2.663-.256 3.98a33.437 33.437 0 0 0-.225 3.121c-.069 2.122-.09 4.245-.285 6.36-.2 2.173-.444 4.343-.668 6.514-.062.606.028.684.628.81.63.132 1.264.036 1.895.077.817.053 1.644-.005 2.464-.057.854-.053 1.703-.19 2.557-.229 1.274-.057 2.535-.218 3.795-.383.75-.099.952-.556.597-1.225a2.478 2.478 0 0 0-.271-.39c-.9-1.11-1.83-2.182-3.254-2.658-.712-.237-1.015-.732-1.121-1.486-.094-.67.163-1.25.227-1.872.12-1.164.26-2.33.492-3.476.27-1.34.273-2.71.566-4.042.094-.427-.11-.65-.492-.788-.49-.176-.997-.175-1.506-.2-.87-.043-1.386-.474-1.486-1.204-.122-.888.228-1.411 1.12-1.714a2.472 2.472 0 0 1 1.31-.089c.528.103 1.037.314 1.594.269.832-.068 1.652.047 2.456.255 1.418.369 2.888.38 4.323.637.56.1.73-.079.865-.605.505-1.96.676-3.98 1.135-5.953.28-1.202.52-2.413.877-3.595.197-.654.47-.827 1.117-.76 1.642.174 3.279.273 4.909-.115.326-.077.446-.16.263-.504-.534-1.005-1.06-2.014-1.6-3.017-.87-1.616-1.617-3.296-2.62-4.84-.282-.433-.431-.905-.391-1.44.034-.472.083-.964-.004-1.422-.249-1.315-.235-2.652-.204-3.963.055-2.308-.772-4.39-1.292-6.66m33.757 117.107c.078-.167.167-.277.179-.395.16-1.623.988-3.051 1.349-4.614.257-1.115.56-2.209 1.033-3.254.09-.198.146-.425.16-.642.064-.964.375-1.869.727-2.748.496-1.236.934-2.514 1.145-3.799.424-2.576 1.337-5.01 1.971-7.522.47-1.863.887-3.76 1.634-5.551.097-.233.137-.489.21-.732a1.181 1.181 0 0 0-.078-.92c-.657-1.301-1.171-2.655-1.672-4.028-.582-1.598-1.278-3.17-1.984-4.728-.924-2.04-1.815-4.093-2.79-6.112-.993-2.055-2.183-3.99-3.296-5.973-.666-1.186-1.268-2.408-1.997-3.563-.714-1.133-1.312-2.33-2.117-3.42-.87-1.175-1.813-2.266-2.89-3.246-.958-.874-1.954-1.706-2.906-2.587-.584-.54-1.231-.984-1.873-1.45-.835-.604-1.854-.833-2.654-1.47-.325-.259-.715-.393-1.073-.584-.789-.418-1.661-.613-2.447-1.03-.866-.459-1.75-.886-2.633-1.314-.457-.222-.926-.42-1.393-.62-.147-.062-.319-.1-.455.004-.159.122-.095.311-.02.435.316.525.376 1.15.652 1.679.94 1.803 1.6 3.722 2.35 5.6.644 1.615 1.27 3.24 2.006 4.808a64.833 64.833 0 0 1 2.993 7.588c.811 2.502 1.784 4.944 2.704 7.4 1.189 3.174 2.219 6.397 3.277 9.609.66 2.003 1.09 4.101 1.407 6.207.147.975.157 1.96.303 2.928.544 3.6-.3 6.852-2.389 9.799-.314.442-.337.764 0 1.176.864 1.055 1.704 2.13 2.556 3.194 1.248 1.558 2.437 3.168 3.763 4.656 1.476 1.656 2.661 3.536 4.248 5.219M63.6 2.907c-2.26.061-3.81.308-5.36.724-2.173.585-4.205 1.42-6.046 2.707-1.19.832-2.383 1.67-3.217 2.887-.396.579-.833 1.12-1.288 1.648-.602.7-1.14 1.438-1.585 2.25-.775 1.413-1.753 2.697-2.408 4.198-.414.948-.867 1.9-1.273 2.855-.755 1.776-1.364 3.613-2.038 5.424-.652 1.751-1.263 3.52-1.977 5.245-.98 2.37-1.783 4.801-2.668 7.203-.371 1.008-.563 2.076-.999 3.068-.28.637-.634 1.267-.766 1.938-.282 1.435-.948 2.754-1.211 4.185-.218 1.185-.843 2.234-1.056 3.427-.184 1.024-.554 2.013-.817 3.024-.39 1.5-.863 2.977-1.274 4.471-.242.88-.546 1.758-.734 2.645a43.963 43.963 0 0 1-.808 3.299c-.055.188-.133.36.05.519.36.31.582.76 1.014.998 1.318.727 2.296 1.881 3.492 2.769 1.884 1.397 3.627 2.995 5.971 3.64 1.224.337 2.427.75 3.655 1.065.92.237 1.869.354 2.798.557 1.272.278 2.569.366 3.852.556.55.08.781-.184.842-.782.035-.345.042-.691.093-1.039.228-1.532.452-3.067.623-4.606.31-2.8.578-5.605.87-8.406.138-1.32.34-2.634.424-3.957.137-2.179.174-4.364.305-6.543.128-2.118.378-4.23.472-6.35.123-2.787.415-5.562.568-8.346.06-1.074.283-2.134.212-3.223-.035-.528-.194-.855-.625-1.176-1.044-.778-1.766-1.833-2.154-3.066-.699-2.218-.81-4.474-.274-6.75.348-1.474 1.113-2.669 2.541-3.244 1.166-.47 2.39-.904 3.7-.482.361.116.805-.018 1.103.244.55.483 1.293.685 1.766 1.281.3.38.694.397 1.094.091.303-.23.612-.457.938-.652 1.331-.798 2.73-1.478 3.95-2.465.413-.334.813-.7 1.258-.994 1.231-.81 2.22-1.892 3.302-2.87.434-.391.716-.88 1.012-1.37.323-.538.259-1.04-.092-1.507-.385-.512-.671-1.073-.961-1.637-.275-.536-.582-1.048-1.052-1.456-.587-.512-1.381-.653-1.978-1.106-1.186-.901-2.543-.886-3.244-.89m161.32 90.806c-.03.54-.403.928-.464 1.443-.276 2.295-.857 4.534-1.264 6.805-.1.56-.103 1.162-.319 1.674-.362.86-.487 1.787-.619 2.662-.33 2.192-.656 4.387-1.1 6.556-.284 1.382-.344 2.845-1.151 4.086-.113.173-.1.353-.083.547.137 1.577.227 3.159.516 4.718.075.403.158.802.211 1.212.159 1.221.202 2.485.516 3.653.586 2.19.65 4.44 1.056 6.647.291 1.584.43 3.202.816 4.767.253 1.025.1 2.008-.004 3.007-.037.35-.188.671-.578.804-1.287.436-2.38-.178-2.503-1.516-.138-1.486-.549-2.92-.743-4.398-.21-1.592-.465-3.183-.657-4.78-.068-.567-.05-1.156-.207-1.697-.504-1.748-.574-3.553-.802-5.338-.08-.628-.06-1.271-.241-1.884-.418-1.407-.252-2.894-.603-4.31-.015-.06-.002-.126-.01-.19-.167-1.283-.292-2.573-.514-3.847-.303-1.738-.433-3.5-.817-5.23-.294-1.321-.452-2.668-.537-4.033-.102-1.636-.514-3.249-.602-4.896a2.257 2.257 0 0 0-.13-.65c-.55-1.501-.754-3.076-.996-4.64-.202-1.312-.298-2.642-.548-3.944-.174-.901-.379-1.794-.48-2.71-.129-1.165-.271-2.326-.508-3.48-.26-1.27-.395-2.565-.622-3.844-.271-1.532-.286-3.104-.59-4.619-.567-2.832-.73-5.71-1.135-8.56a43.976 43.976 0 0 1-.423-4.627c-.025-.688-.008-1.43-.287-2.192a6.272 6.272 0 0 1-1.94 1.133c-.492.185-.686.478-.758.965-.052.348-.099.694-.056 1.039.08.634.041 1.264.003 1.897-.081 1.324-.207 2.647-.07 3.976.074.706.109.739.83.58.123-.027.245-.067.37-.092.671-.135 1.025.057 1.259.682.29.775.015 1.385-.729 1.812-1.004.576-2.14.792-3.197 1.223-.88.358-1.785.655-2.648 1.048a98.646 98.646 0 0 0-3.924 1.913c-.67.342-1.532.505-1.894 1.207-.476.925-1.005 1.837-1.314 2.846-.5 1.634-1.175 3.212-1.587 4.874-.32 1.29-.618 2.586-.944 3.875-.112.444.001.763.297 1.12a29.61 29.61 0 0 0 1.87 2.025c.48.48.452.463.974.094 1.425-1.005 2.743-2.151 4.243-3.064a3.113 3.113 0 0 1 1.689-.48c.59-.003.939.298 1.073.875.207.89-.133 1.637-1.014 1.996-.774.316-1.19.85-1.204 1.653-.016.82.141 1.638.039 2.464-.025.201.085.437.183.631a59.649 59.649 0 0 0 2.957 5.205c.759 1.184 1.1 2.495 1.133 3.878.04 1.678.043 3.358.021 5.037-.029 2.183-.078 4.365-.313 6.54a10.066 10.066 0 0 0-.052 1.805c.122 1.679-.08 3.345-.15 5.016-.08 1.93-.284 3.858-.313 5.789-.033 2.244-.099 4.49-.196 6.73-.075 1.736.033 3.469-.074 5.203a38.47 38.47 0 0 0-.01 4.364c.069 1.3-.073 2.598.035 3.888.082.98.155 1.96.159 2.94.007 1.896.506 3.694 1.037 5.488.07.239.18.501.351.67.82.802 1.799 1.484 2.866 1.773 1.813.49 3.702.583 5.533-.061 1.171-.413 2.294-.93 3.194-1.821.477-.473 1.033-.841 1.563-1.247 1.233-.942 2.453-1.9 3.375-3.179.69-.956 1.144-2.043 1.723-3.059.304-.533.768-.933 1.029-1.47.885-1.825 1.936-3.566 2.839-5.371.845-1.692 1.839-3.32 2.516-5.098.124-.325.252-.653.414-.96 1.317-2.495 2.357-5.114 3.455-7.706.234-.55.629-1.029.72-1.645.143-.973.476-1.9.724-2.847.513-1.96 1.046-3.912 1.257-5.94.125-1.196.201-2.402.38-3.582.187-1.24.102-2.468.048-3.679-.064-1.41-.131-2.833-.404-4.243-.365-1.887-.468-3.83-1.458-5.55-.062-.109-.09-.237-.13-.357-.213-.63-.58-1.183-.906-1.754-.87-1.52-2.09-2.78-3.164-4.146-.533-.679-1.045-1.446-1.898-1.834-.16-.072-.25-.285-.395-.403-.898-.729-1.67-1.658-2.995-1.862m-75.843 55.006c.406.12.6-.204.775-.632.454-1.11.357-2.392 1.083-3.417.064-.091.03-.248.05-.373.315-1.978.788-3.93 1.505-5.788.755-1.953 1.261-3.975 1.869-5.964.718-2.352 1.18-4.78 1.855-7.15.573-2.008 1.104-4.028 1.644-6.046.344-1.282.668-2.57 1.003-3.854.382-1.466.797-2.924 1.137-4.4.298-1.293.576-2.59.907-3.876.347-1.347.552-2.734.961-4.06.524-1.698.837-3.444 1.279-5.16.29-1.13.492-2.29.968-3.354.341-.76.49-1.569.781-2.336.126-.333.093-.588-.266-.795-1.356-.782-2.626-1.726-4.207-2.061a5.431 5.431 0 0 1-1.26-.426c-1.602-.787-3.295-1.314-4.998-1.818-1.001-.296-2.02-.53-3.012-.86a13.61 13.61 0 0 0-2.32-.534c-1.536-.225-3.088-.357-4.587-.791-2.587-.75-5.191-1.448-7.665-2.543-.985-.436-2.084-.589-3.022-1.16a.593.593 0 0 0-.37-.052c-.349.053-.59-.153-.88-.283-.98-.441-1.949-.992-2.984-1.206-1.304-.27-2.625-.459-3.9-.865-.412-.132-.652-.003-.77.437-.251.95-.574 1.881-.807 2.835-.459 1.877-1.118 3.695-1.597 5.568-.516 2.018-1.275 3.967-2.113 5.88a3.797 3.797 0 0 0-.2.633c-.315 1.293-.773 2.543-1.16 3.813-.795 2.601-1.651 5.19-2.268 7.835-.597 2.558-1.454 5.048-1.93 7.632-.283 1.529-.738 3.01-1.18 4.492-.281.938-.634 1.853-.86 2.808-.291 1.23-.572 2.465-1.18 3.594a1.614 1.614 0 0 0-.18.638c-.07 1.001-.417 1.913-.845 2.806-.11.227-.248.474-.25.713-.019 1.253-.63 2.362-.865 3.57-.36 1.853-.72 3.733-1.387 5.52-.15.402.029.538.37.566 1.56.124 3 .802 4.553.965.92.097 1.803.378 2.69.63.43.122.544.01.43-.413-.197-.735-.467-1.457-.453-2.229a7.709 7.709 0 0 0-.237-1.974 7.235 7.235 0 0 1-.127-2.914c.184-1.145.77-1.974 1.706-2.599.236-.158.515-.258.738-.432 1.521-1.188 3.36-1.723 5.091-2.481 1.025-.449 2.12-.621 3.193-.896 1.257-.322 2.506-.32 3.772-.268.38.015.76 0 1.126.157 1.701.726 3.34 1.519 4.544 3.014.362.45.605.972.988 1.388.975 1.061 1.706 2.283 2.364 3.544.996 1.907 1.905 3.86 2.912 5.76.756 1.428 1.482 2.856 2.09 4.36.507 1.256 1.198 2.438 1.491 3.779.07.319.25.471.578.532 1.094.206 2.187.412 3.427.541m-76.534-47.14c-.467 0-1.104-.017-1.74.004-.566.018-.876-.31-1.113-.75-.1-.187-.08-.415.126-.49.656-.236 1.227-.734 1.939-.764 1.082-.047 2.127-.37 3.214-.373.538-.001 1.1.001 1.606-.149 1.287-.38 2.598-.517 3.927-.635.823-.072 1.647-.123 2.47-.196.664-.058 1.322-.248 1.512-.946.226-.83.538-1.723-.062-2.533-.199-.27-.518-.466-.868-.56-.368-.098-.745-.156-1.118-.23-1.205-.242-2.406-.046-3.605-.006-.577.02-1.136-.184-1.704-.08-1.248.23-2.492.523-3.771.389-.876-.093-1.672.354-2.528.312-1.001-.049-1.942.314-2.876.533-1.038.243-2.112.417-3.125.796-.411.153-.836.3-1.301.254a.989.989 0 0 0-.844.359c-.176.21-.384.325-.617.419-.76.306-1.396.842-2.183 1.11-.876.297-1.575.945-2.4 1.341-1.404.674-2.78 1.388-4.089 2.232-.614.396-1.21.837-1.866 1.15-1.403.669-2.495 1.718-3.593 2.765-.942.899-1.754 1.921-2.689 2.831-1.43 1.392-2.889 2.77-4.086 4.371-.828 1.105-1.945 1.898-2.87 2.896-1.116 1.202-2.434 2.206-3.553 3.418a124.273 124.273 0 0 1-4.908 5.036c-1.782 1.724-3.43 3.572-5.198 5.305-.444.434-.94.637-1.495.762-.616.14-.904-.084-.962-.708a2.825 2.825 0 0 1 .738-2.198 150.533 150.533 0 0 1 4.02-4.281c.273-.28.346-.474.19-.813-.498-1.077-.623-2.254-.835-3.398-.553-2.986-.898-6.005-1.514-8.987-.57-2.757-1.086-5.526-1.735-8.264a225.222 225.222 0 0 0-2.291-8.83c-.588-2.098-1.298-4.162-2.038-6.215-.261-.723-.667-1.365-.974-2.06-.678-1.533-1.306-3.088-2.234-4.507-.368-.562-.893-.975-1.224-1.567-.347-.62-.619-.611-1.059-.028A248.15 248.15 0 0 0 10 82.656c-.648.9-1.363 1.775-1.854 2.758-.647 1.296-1.279 2.6-1.954 3.883-.902 1.716-1.412 3.576-1.985 5.415-.183.586-.163 1.195-.323 1.768-.385 1.38-.51 2.8-.648 4.208-.193 1.951-.004 3.926-.208 5.884a1.8 1.8 0 0 0 .018.475c.237 1.378.19 2.78.266 4.167.095 1.748.452 3.45.632 5.18.103 1.005.428 1.987.539 2.992.209 1.9.743 3.725 1.18 5.572.153.645.437 1.258.518 1.925.17 1.426.93 2.677 1.228 4.065.013.06.052.116.08.173.485 1 .82 2.056 1.188 3.1.324.922.643 1.846.992 2.759.419 1.093.93 2.153 1.352 3.242.883 2.276 1.892 4.49 2.954 6.686 1.177 2.436 2.431 4.817 4.312 6.794.885.931 1.505 2.077 2.656 2.806 1.296.82 2.53 1.619 4.116 1.82 3.642.461 6.598-.708 9.026-3.415.894-.997 1.646-2.088 2.423-3.164.742-1.027 1.492-2.06 2.162-3.123 1.05-1.667 2.368-3.13 3.418-4.793 1.045-1.656 2.211-3.237 3.315-4.856.214-.313.335-.7.587-.973.697-.752 1.12-1.683 1.715-2.503.818-1.125 1.51-2.339 2.383-3.434.71-.89 1.402-1.816 1.998-2.77.921-1.476 1.739-3.017 2.734-4.451.286-.413.592-.822.68-1.348.056-.332.345-.497.613-.686.95-.671 2.092-.904 3.133-1.363 1.01-.446 2.082-.836 3.166-1.013 1.558-.255 3.125-.529 4.737-.383.55.05 1.134.14 1.694.06 2.007-.286 3.992.042 5.986.158 1.36.08 1.389.313 2.746.055.6-.115 1.2-.146 1.8-.187 1.306-.09 2.928-.711 3.252-1.997.326-1.294 1.708-2.857 2.168-3.535 1.044-1.54 1.796-1.772 1.796-4.036 0-3.287 2.212-5.118 1.967-8.228-.092-1.165-.637-1.775-1.725-1.871-.22-.02-.446.004-.665.033-1.82.238-3.67.234-5.469.656-.091.021-.19.02-.285.019-1.525-.007-3.047.05-4.561.25a18.14 18.14 0 0 1-3.31.15m124.253-6.144c-.227.134-.314.174-.387.23-.565.429-1.175.797-1.9.781-.906-.02-1.618-.67-2.48-.863-.076-.017-.129-.134-.193-.204-.71-.769-1.444-1.517-2.122-2.312-.56-.655-1.076-1.38-.998-2.296.08-.941.207-1.887.512-2.791.607-1.799 1.15-3.619 1.832-5.393.248-.647.193-.67-.47-.793-1.586-.296-3.192-.51-4.752-.907-1.774-.452-3.582-.877-5.1-2.002-.237-.175-.528-.228-.808-.272a25.613 25.613 0 0 0-1.797-.23c-2.437-.207-4.885-.27-7.317-.541-.41-.046-.828-.084-1.235.03a3.07 3.07 0 0 1-1.326.06c-.952-.155-1.898.013-2.845.01a95.783 95.783 0 0 0-6.857.229c-.412.028-.827 0-1.24.007-.447.007-.726.236-.78.678-.178 1.446-.698 2.819-.906 4.26-.11.76-.137.784.598 1.005.974.292 1.949.576 2.884.982 1.508.654 3.07 1.168 4.58 1.826 1.027.45 1.951 1.055 2.942 1.55.403.202.735.568.878.978.385 1.107.694 2.205.202 3.415-.44 1.08-.793 2.206-1.142 3.322-.357 1.146-.502 2.355-.807 3.52-.313 1.193-.497 2.417-.909 3.588a11.245 11.245 0 0 0-.522 2.12c-.136.938-.295 1.884-.57 2.788-.704 2.306-.977 4.707-1.638 7.023-.216.757-.503 1.506-.63 2.276-.16.969-.418 1.902-.66 2.849-.708 2.76-1.383 5.527-2.3 8.23-.111.325-.163.68-.187 1.025a4.94 4.94 0 0 1-.205 1.118c-.368 1.21-.836 2.405-1.06 3.643-.407 2.256-1.443 4.314-1.929 6.547-.266 1.227-.649 2.44-.944 3.668-.311 1.29-.606 2.59-1.035 3.843-.226.658-.111 3.212-.829 3.733-.717.521-2.328.12-3.475-.36-.588-.247-1.313-.177-1.977-.24-.702-.065-.755-.032-.776.702-.05 1.741-.072 3.483-.122 5.224-.007.274.061.478.341.435.577-.088 1.129.126 1.708.055 1.803-.218 3.618-.07 5.422-.03 1.17.026 2.342-.036 3.513-.003 1.129.031 2.283-.076 3.425-.062 2.605.032 5.215.103 7.814.063 2.892-.045 5.784.03 8.673-.058 1.024-.03 2.037.232 3.043.146 1.713-.148 3.422-.003 5.133-.055 2.504-.075 5.01.13 7.522 0 1.037-.055 2.099-.077 3.136-.01 1.304.084 2.604.013 3.905.06.748.027.854-.072.753-.807-.082-.597-.075-1.199-.154-1.79-.266-1.981-.331-3.97-.326-5.965.002-.596.009-.603-.633-.658-.474-.041-.948-.028-1.424-.108a212.182 212.182 0 0 0-6.12-.942c-1.98-.27-3.983-.394-5.937-.84-1.486-.34-3.007-.432-4.505-.695-1.264-.22-2.585-.2-3.85-.465-1.083-.226-2.192-.268-3.265-.543-.396-.101-.798-.231-1.22-.195-1.104.095-2.132-.31-3.195-.482a1.024 1.024 0 0 1-.844-.691 2.745 2.745 0 0 1-.095-1.591c.116-.486.423-.77.95-.765.92.01 1.837-.04 2.762.079.853.11 1.681.37 2.535.414 1.264.066 2.511.233 3.761.412.534.077 1.066.176 1.599.255 1.005.15 2.027.156 3.022.338 1.335.244 2.664.498 4.022.578.38.023.76.074 1.136.134 1.63.26 3.258.543 4.89.79 1.942.293 3.89.547 5.83.846.39.06.538-.05.551-.415.006-.158.014-.316.018-.475.06-2.494.165-4.987.167-7.481.003-3.584.279-7.153.47-10.726.105-1.962.301-3.922.322-5.884.013-1.298.087-2.592.139-3.887.074-1.867-.025-3.74.176-5.601.15-1.392-.14-2.778-.002-4.173.094-.963-.145-1.878-.649-2.727-.47-.79-.83-1.65-1.35-2.404-.371-.539-.54-1.249-1.147-1.597-.409-.234-.525-.568-.646-.983-.33-1.127-.372-2.3-.574-3.553M116.77 94.17c.33-1.27.929-2.383 1.387-3.548 1.083-2.748 1.843-5.6 2.86-8.367.25-.678.307-1.415.556-2.106.347-.958.816-1.86 1.202-2.798a.608.608 0 0 1 .044-.084c.58-.982 2.553-1.861 3.656-1.58.922.236 1.862.393 2.782.61 1.502.355 2.99.779 4.417 1.436 1.286.592 2.627 1.11 4.035 1.395.976.199 1.817.754 2.76 1.048.814.255.763.23 1.39-.35 1.473-1.36 3.042-2.568 5.034-3.144 1.032-.3 2.019-.754 3.1-.888 1.821-.225 3.638-.444 5.482-.439.976.003 1.96-.12 2.939-.186 1.746-.118 3.494-.096 5.24-.148 2.183-.065 4.367-.144 6.55-.112 1.71.025 3.417.26 5.128.308 1.526.042 3.045.109 4.556.317.336.046.489-.099.476-.415-.019-.443-.101-.886-.086-1.327.06-1.736-.095-3.47.024-5.21.078-1.13-.12-2.268-.664-3.318-.957-1.845-1.544-3.815-1.862-5.863-.182-1.177.108-2.336.201-3.502.12-1.492.612-2.913 1.003-4.342.268-.98.03-1.67-.632-2.296a2.716 2.716 0 0 1-.638-.931c-.872-2.049-1.032-4.185-.582-6.333.662-3.16 2.681-5.234 5.571-6.54a6.293 6.293 0 0 1 2.488-.583c.556-.011 1.09-.168 1.367-.702.464-.896 1.224-1.53 1.9-2.239.722-.757 1.477-1.485 2.165-2.271a16.098 16.098 0 0 1 3.546-3.009c.207-.13.465-.221.572-.53-.727-.577-1.422-1.23-2.212-1.734-1.709-1.091-2.761-2.668-3.544-4.467a19.793 19.793 0 0 1-1.132-3.426c-.23-.99-.178-2.034-.109-3.026.1-1.441.299-2.9 1.035-4.218.306-.55.498-1.157.846-1.697.977-1.516 2.255-2.728 3.718-3.755.32-.224.608-.425.773-.798.187-.422.53-.719.979-.852.973-.288 1.936-.642 2.93-.817 1.277-.223 2.564-.355 3.883-.198 1.682.2 3.304.6 4.817 1.318 1.497.71 2.726 1.785 3.887 2.994 1.32 1.376 2.156 2.986 2.724 4.723.572 1.744.816 3.577.495 5.431-.016.094-.048.186-.051.28-.093 2.476-1.138 4.602-2.573 6.533-.556.746-1.146 1.518-1.957 2.06-.593.397-.572.604.028 1.051.382.285.771.56 1.15.848 2.013 1.531 3.476 3.512 4.526 5.773 1.023 2.202 1.68 4.512 1.477 6.99-.096 1.176-.363 2.31-.735 3.425-.895 2.68-2.213 5.176-3.427 7.716-.19.396-.274.749-.167 1.178.312 1.247.261 2.512.068 3.768-.154 1.005-.482 1.96-1.077 2.8-.177.25-.312.508-.193.793.467 1.118.333 2.317.466 3.474.252 2.204.573 4.398.886 6.592.109.757.086 1.52.215 2.27.29 1.683.614 3.36.869 5.048.236 1.56.41 3.13.593 4.698.09.77.15.888.934 1.057.423.09.71.273.77.715.063.455.358.72.723.947 1.241.77 2.307 1.78 3.515 2.587.81.541 1.688.995 2.523 1.512 1.746 1.081 3.586 2.028 5.253 3.218 1.793 1.281 3.6 2.56 4.997 4.349.828 1.06 1.852 1.984 2.634 3.098 1.02 1.453 1.956 2.951 2.623 4.61.663 1.653 1.071 3.387 1.289 5.119.406 3.227.686 6.469.42 9.75-.12 1.477-.375 2.94-.486 4.419-.109 1.448-.449 2.916-.962 4.328-.472 1.3-.775 2.664-1.094 4.014-.141.599-.42 1.127-.646 1.683-.692 1.703-1.273 3.465-2.128 5.084-.723 1.37-1.267 2.818-2.048 4.164-.662 1.143-1.098 2.421-1.717 3.602-.864 1.65-1.676 3.325-2.663 4.91-.398.642-.619 1.4-1.055 2.01-.892 1.245-1.522 2.628-2.238 3.964-.648 1.208-1.49 2.276-2.31 3.362-.398.526-.714 1.11-1.286 1.506-.285.198-.517.456-.879.532a1.166 1.166 0 0 0-.645.389c-1.117 1.303-2.534 2.156-4.103 2.812-1.392.584-2.87.851-4.34.982-.877.078-1.822-.072-2.733-.13-1.788-.116-3.273-.972-4.784-1.739-.87-.44-1.51-1.258-2.02-2.097-.283-.468-.571-.69-1.123-.677-1.75.04-3.5.055-5.25.056-1.654.001-3.309-.064-4.963-.033-2.031.038-4.062-.007-6.095.03-1.711.032-3.43-.036-5.147-.023-2.38.017-4.76.044-7.141.037-5.66-.015-11.322-.014-16.982-.094-1.802-.025-3.605.07-5.413-.055-.762-.052-1.57-.074-2.365.018-.953.11-1.887-.215-2.813-.432-.556-.13-.832-.583-.97-1.087-.219-.794-.38-1.606-.202-2.435.128-.598.063-1.2.051-1.796-.01-.525-.225-.67-.65-.426-.8.46-1.702.678-2.512 1.106-.346.182-.738.184-1.107.279-1.297.333-2.612.553-3.955.469-1.906-.12-3.8-.351-5.59-1.06-.595-.235-1.215-.36-1.812-.568-1.263-.44-2.443-1.094-3.565-1.778-1.37-.834-2.614-1.891-3.608-3.201-.766-1.01-1.364-2.14-2.214-3.089-.156-.174-.264-.397-.216-.61.197-.877-.376-1.5-.684-2.213-.118-.273-.343-.325-.599-.396a158.894 158.894 0 0 0-6.995-1.8c-1.454-.337-2.9-.673-4.383-.858-.838-.105-.988-.318-1.021-1.18-.03-.801.129-1.594.329-2.341.277-1.036.42-2.106.819-3.12.225-.573.202-1.243.296-1.869.032-.213-.013-.394-.233-.456-.453-.127-.606-.521-.837-.86-.642-.945-1.448-1.76-2.121-2.686a57.09 57.09 0 0 0-3.335-4.154c-1.26-1.43-2.295-3.022-3.487-4.499-.435-.539-.961-.995-1.328-1.604-.276-.46-.525-.435-.89.016-.522.645-1.125 1.185-1.769 1.711-.663.542-.994 1.238-1.004 2.222-.014 1.259.166 2.526-.042 3.787-.14.847.016 1.709.054 2.555.084 1.875-.144 3.735-.136 5.603.003.757-.127 1.515-.194 2.272-.203 2.27-.422 4.539-.51 6.818-.011.284-.016.573-.071.851-.145.734-.467.99-1.24 1.033-.064.003-.127-.005-.191-.005-.8-.012-1.433.269-2.135.727-2.83 1.846-5.66 3.709-8.867 4.91-1.242.465-2.43 1.09-3.68 1.557a42.556 42.556 0 0 1-8.267 2.194c-1.288.203-2.588.398-3.873.457-1.391.065-2.788.2-4.187.143-.38-.016-.762.009-1.143.02-2.922.089-5.828.002-8.724-.479-1.217-.201-2.424-.458-3.665-.568-1.343-.12-2.677-.426-3.989-.791-.768-.214-.854-.214-1.183.523-.57 1.275-1.487 2.28-2.396 3.288-1.911 2.117-4.2 3.665-7.06 4.169-1.635.288-3.296.202-4.934-.118-1.122-.219-2.234-.462-3.194-1.138a.99.99 0 0 0-.443-.16c-1.439-.162-2.434-1.072-3.314-2.07-1.614-1.83-3.126-3.746-4.299-5.903-.24-.443-.53-.863-.829-1.271a3.407 3.407 0 0 1-.603-1.383c-.105-.539-.364-.998-.686-1.446-.653-.906-1.053-1.954-1.483-2.97-.977-2.298-1.706-4.698-2.788-6.955-.401-.836-.498-1.778-.914-2.599-.602-1.19-.653-2.58-1.398-3.713a.668.668 0 0 1-.1-.266c-.238-1.63-.98-3.127-1.246-4.752-.086-.526-.283-1.04-.474-1.542-.512-1.347-.587-2.784-.873-4.176-.585-2.854-1.096-5.725-1.276-8.64-.151-2.431-.275-4.868-.216-7.304a70.36 70.36 0 0 1 .34-5.488c.14-1.357.346-2.691.6-4.031.325-1.725.891-3.37 1.446-5.018.71-2.107 1.751-4.073 2.89-5.984.953-1.602 1.84-3.272 3.054-4.676 1.04-1.203 1.709-2.674 2.892-3.754.14-.127.278-.278.355-.446.698-1.533 1.953-2.636 3.04-3.855 1.583-1.774 3.255-3.478 5.137-4.938 1.244-.965 2.519-1.91 3.923-2.65.32-.17.601-.344.699-.725.029-.115.109-.265.207-.309.948-.43 1.03-1.364 1.267-2.187.515-1.792.977-3.6 1.478-5.397.816-2.928 1.709-5.834 2.542-8.756.713-2.498 1.485-4.977 2.38-7.409.678-1.843 1.116-3.765 1.877-5.569.553-1.31.854-2.71 1.596-3.956.414-.695.511-1.555.805-2.326.857-2.25 1.714-4.5 2.553-6.755.763-2.052 1.676-4.035 2.583-6.018.666-1.457 1.55-2.818 2.483-4.136.568-.8 1.186-1.566 1.75-2.363 1.498-2.11 3.415-3.753 5.594-5.07 1.206-.728 2.536-1.277 3.888-1.746 1.266-.44 2.562-.72 3.878-.93 1.666-.263 3.347-.31 5.03-.285.348.005.691.047 1.043-.015.312-.055.641-.045.942.078 1.408.577 2.782 1.193 4.081 2.02 1 .637 1.602 1.498 2.158 2.456.683 1.178 1.407 2.336 2.03 3.546.857 1.666 1.352 3.472 1.88 5.263.699 2.378.71 4.82.707 7.263 0 .603.008 1.205.008 1.807 0 .707.213 1.315.531 1.97.61 1.255 1.58 2.328 2.029 3.616.675 1.938 1.955 3.54 2.717 5.417.468 1.152-.315 2.829-1.587 3.087-1.427.289-2.856.614-4.326.621-.128.001-.254.014-.382.023-.945.066-.998.12-.773 1.023.383 1.537.628 3.106 1.108 4.622.267.842.281 1.74.46 2.607.178.869.341 1.753.64 2.57.487 1.328.615 2.718.938 4.07.11.465.27.907.405 1.36.227.762.798.989 1.455.974 1.572-.037 2.983.533 4.415 1.038 1.912.676 3.652 1.73 5.516 2.522 2.183.929 4.218 2.17 6.228 3.428.72.45 1.371 1.012 1.993 1.603.85.81 1.775 1.544 2.59 2.384 1.748 1.8 3.29 3.76 4.475 5.986 1.04 1.954 2.232 3.825 3.195 5.823.191.397.472.752.724 1.117.835 1.207 1.455 2.52 1.965 3.888.2.538.456 1.049.748 1.539.75 1.258 1.198 2.648 1.799 3.97.47 1.036.744 2.153 1.344 3.132.253.412.33.891.444 1.352.173.706.642 1.254.967 1.93" mask="url(#contact-b)"/>
      </g>
      <path fill="#000" d="M69.04 38.045c.008.67-.419 1.218-1.07 1.207-.623-.01-1.247-.075-1.83-.408-.885-.506-1.648-1.174-2.463-1.766-.864-.627-1.119-1.578-.873-2.63.153-.652 1.088-1.042 1.673-.705a.446.446 0 0 1 .149.116c.95 1.376 2.563 1.923 3.765 2.985.379.334.657.68.65 1.201m-.793-13.62c-.005-1.185.549-1.883 1.511-1.906.855-.02 1.6.801 1.603 1.766.001 1.043-.639 1.858-1.462 1.86-1.111.002-1.647-.556-1.652-1.72m120.6 36.585c.963.282 2-.245 3.086-.35.322-.03.645-.08.968-.08 1.014 0 1.527.862 1.035 1.753a1.46 1.46 0 0 1-.83.701c-1.137.401-2.3.706-3.501.666-.837-.028-1.686.092-2.516-.124-.805-.21-1.042-.625-.787-1.43.297-.94.586-1.15 1.557-1.136.275.004.549 0 .988 0m3.05-2.546c-.97-.28-2.2-.297-3.283-.88-.8-.43-1.088-1.161-.79-2.004.1-.288.294-.498.614-.521.284-.02.6-.078.85.016 1.044.393 2.173.434 3.22.813.93.337 1.234.806 1.052 1.706-.13.635-.538.877-1.663.87m-6.33-11.744c.015-.961.837-1.67 1.908-1.647.85.019 1.59.677 1.592 1.417.001 1.126-.9 2.09-1.925 2.057-.814-.025-1.589-.924-1.575-1.827m12.436 7.073c-.018-1.045.775-1.845 1.847-1.866.982-.019 1.685.648 1.713 1.623.029 1.014-1.006 1.98-2.122 1.982-.892.001-1.42-.637-1.438-1.739M77.796 111.2c-1.639.033-3.099.26-4.563.403-.255.025-.505.037-.756-.026-.764-.193-1.112-.9-.902-1.833.073-.327.228-.556.487-.676.287-.132.58-.239.888-.243 1.09-.018 2.175-.175 3.264-.231 1.44-.075 2.877-.292 4.315-.455a6.657 6.657 0 0 1 2.188.103c.565.125.744.444.79 1.188.041.66-.107.926-.662 1.198-.505.248-1.046.266-1.572.32-1.212.128-2.43.18-3.477.252m-3.257-20.28c2.42-.211 5.763-.968 7.158-1.028 1.395-.06 2.912-.302 3.519-.242.606.06.424 2.781 0 2.963-.425.181-2.67.302-3.822.423-1.153.12-6.249.302-6.855.302-.607 0-1.162-2.317 0-2.418"/>
    </g>
  </g>
</svg>
