<?xml version="1.0" encoding="UTF-8"?>
<svg width="91px" height="32px" viewBox="0 0 91 32" version="1.1" xmlns="http://www.w3.org/2000/svg" xmlns:xlink="http://www.w3.org/1999/xlink">
    <title>Logo_NIKE</title>
    <g id="Home" stroke="none" stroke-width="1" fill="none" fill-rule="evenodd">
        <g transform="translate(-780.000000, -3043.000000)" fill="#000000" fill-rule="nonzero" id="Weaponise-CV">
            <g transform="translate(0.000000, 1669.000000)">
                <g id="Get-Hired" transform="translate(140.000000, 1228.000000)">
                    <g id="Logos" transform="translate(625.000000, 0.000000)">
                        <g id="Logo_NIKE" transform="translate(15.000000, 146.000000)">
                            <path d="M10.0379809,31.9869925 C7.32655651,31.8807128 5.10820276,31.1486654 3.37363398,29.7890178 C3.04259878,29.5292738 2.25377855,28.7504999 1.9891361,28.4220405 C1.28574432,27.5493556 0.807530765,26.700034 0.488566967,25.7577176 C-0.492931532,22.8570139 0.012210553,19.0506419 1.9334219,14.8732071 C3.57838367,11.2968025 6.11662979,7.74971648 10.5449802,2.8370275 C11.1973006,2.11414208 13.1398691,0 13.1524047,0 C13.1570476,0 13.0511906,0.180950405 12.9179408,0.401297608 C11.766514,2.30425453 10.7813012,4.54574904 10.2445878,6.48627035 C9.38241051,9.59999163 9.48641035,12.2721023 10.5491587,14.344099 C11.2822647,15.7715457 12.5390843,17.0079638 13.9523678,17.6914524 C16.4265426,18.8875575 20.0488942,18.9865076 24.4726017,17.9809731 C24.7771727,17.9113415 39.869221,13.9583768 58.0106933,9.19640351 C76.1521656,4.43397209 90.9976786,0.540560705 91,0.543767421 C91.0051071,0.547890341 48.8522073,18.3451644 26.9699908,27.5782161 C23.5045675,29.0400205 22.5778546,29.409251 20.9486785,29.973633 C16.7840421,31.4166552 13.053512,32.1051829 10.0379809,31.9869925 Z" id="Path"></path>
                        </g>
                    </g>
                </g>
            </g>
        </g>
    </g>
</svg>