<svg xmlns="http://www.w3.org/2000/svg" xmlns:xlink="http://www.w3.org/1999/xlink" width="263" height="275" viewBox="0 0 263 275">
  <defs>
    <rect id="media_kit-b" width="134" height="181" x="34.481" y="17.638" rx="2"/>
    <filter id="media_kit-a" width="117.9%" height="117.7%" x="-9%" y="-4.4%" filterUnits="objectBoundingBox">
      <feMorphology in="SourceAlpha" radius="10" result="shadowSpreadOuter1"/>
      <feOffset dy="12" in="shadowSpreadOuter1" result="shadowOffsetOuter1"/>
      <feGaussianBlur in="shadowOffsetOuter1" result="shadowBlurOuter1" stdDeviation="12"/>
      <feColorMatrix in="shadowBlurOuter1" values="0 0 0 0 0.799111187   0 0 0 0 0.28038532   0 0 0 0 0.205259504  0 0 0 1 0"/>
    </filter>
    <linearGradient id="media_kit-c" x1="100%" x2="0%" y1="50%" y2="50%">
      <stop offset="0%" stop-opacity="0"/>
      <stop offset="100%" stop-opacity=".1"/>
    </linearGradient>
  </defs>
  <g fill="none" fill-rule="evenodd" transform="rotate(-16 204.971 26.471)">
    <path fill="#FDE8E4" d="M92.484 1.707l112.997 65.408a2 2 0 0 1 .731 2.729l-88.46 153.615a2 2 0 0 1-2.735.733L2.021 158.784a2 2 0 0 1-.731-2.73L89.75 2.44a2 2 0 0 1 2.734-.733z"/>
    <use fill="#000" filter="url(#media_kit-a)" xlink:href="#media_kit-b"/>
    <use fill="#F2614C" xlink:href="#media_kit-b"/>
    <path fill="url(#media_kit-c)" d="M35.96 17.575h2v181h-2a2 2 0 0 1-2-2v-177a2 2 0 0 1 2-2z"/>
    <path fill="#FFF" d="M65.711 104.574c.428.124.6.179.742.579l.812 2.246a.23.23 0 0 1-.07.275c-.072.07-.186.11-.286.07-.813-.345-1.868-.648-2.867-.621-4.577.138-4.192 6.298.129 6.505 2.125.11 4.207-1.585 5.576-4.12l-1.697-4.659a.26.26 0 0 1 .043-.248.302.302 0 0 1 .228-.11h2.723c.257 0 .472.152.542.372l2.653 8.338 2.667-8.338a.556.556 0 0 1 .542-.372H80.1c.1 0 .171.041.228.11.057.07.071.166.043.248l-3.993 10.956c-.1.303-.37.482-.698.482h-2.94a.717.717 0 0 1-.698-.482l-1.198-3.293c-1.455 2.342-3.907 4.12-6.774 4.106-4.178-.014-6.432-2.977-6.702-5.994-.4-4.507 3.864-7.277 8.342-6.05zm66.455-.345c3.408 0 5.79 2.495 5.22 6.642a.267.267 0 0 1-.216.227l-.07.008H130c.185 1.502 1.24 2.7 3.137 2.7 1.098 0 2.068-.164 3.28-.578.085-.041.17-.027.257.027.053.042.09.099.106.16l.007.061v2.054a.26.26 0 0 1-.156.248c-1.099.496-2.439.812-3.737.771-3.664-.124-6.203-2.218-6.317-5.898-.114-3.57 2.339-6.422 5.59-6.422zm-23.26 0c3.101 0 5.104 1.337 5.202 4.533l.004.25v4.23c0 .42.17.593.622.639l.12.008.428.028c.134.012.248.095.277.213l.008.063v1.681c0 .11-.071.207-.186.248-1.227.506-3.56.407-4.061-1.169l-.046-.168h-.057c-.628 1.447-2.424 1.764-3.223 1.764-2.467 0-3.979-1.75-3.979-3.803 0-4.357 4.564-4.41 6.728-3.263l.117.065v-.55c0-1.379-.784-1.985-2.438-1.985-1.027 0-1.997.193-3.08.593-.086.027-.185.027-.257-.028a.269.269 0 0 1-.12-.165l-.008-.07v-2.177c0-.11.071-.206.185-.248a10.838 10.838 0 0 1 3.765-.689zm-9.981 0c2.49 0 4.136 1.662 4.23 4.305l.005.243v7.235a.28.28 0 0 1-.22.268l-.065.008h-2.838a.285.285 0 0 1-.278-.213l-.008-.063v-6.739c0-2.75-3.575-2.783-3.73-.178l-.006.178v6.739c0 .13-.094.24-.22.268l-.065.008h-2.838a.285.285 0 0 1-.278-.213l-.007-.063v-6.739c0-2.736-3.576-2.796-3.731-.178l-.005.178v6.739c0 .13-.095.24-.22.268l-.066.008h-2.837a.284.284 0 0 1-.278-.213l-.008-.063v-11.259c0-.118.094-.226.22-.255l.066-.007h2.638c.134 0 .237.091.264.204l.007.058v1.13c.756-1.116 1.925-1.654 3.323-1.654 1.51 0 2.68.648 3.35 1.805.8-1.226 2.054-1.805 3.595-1.805zm45.676 0c.2 0 .357 0 .514.028a.287.287 0 0 1 .22.21l.008.066v2.453c0 .118-.094.226-.22.254l-.065.008h-1.34c-1.199 0-1.747.64-1.794 1.873l-.004.18v6.71c0 .13-.094.24-.22.27l-.065.007h-2.795a.284.284 0 0 1-.277-.213l-.008-.063v-11.245c0-.13.094-.24.22-.269l.065-.007h2.595c.135 0 .249.091.278.213l.008.063v1.268a3.22 3.22 0 0 1 2.88-1.806zm-25.17-3.61c.135 0 .248.09.278.212l.008.063v8.53l3.636-4.823a.308.308 0 0 1 .165-.103l.064-.007h3.037c.114 0 .2.055.256.152.035.066.042.15.006.223l-.034.053-3.38 4.45 3.794 6.519a.223.223 0 0 1 0 .262.264.264 0 0 1-.185.132l-.058.005h-3.095a.29.29 0 0 1-.21-.091l-.032-.046-.756-1.296-1.811-3.142-1.397 1.681v2.619c0 .13-.095.24-.22.268l-.066.007h-2.838a.278.278 0 0 1-.263-.212l-.007-.063v-15.118c0-.13.094-.24.21-.268l.06-.008h2.838zm-12.193 12.03c0 1.845 3.456 2.098 3.617-.344l.005-.18v-.44c-.884-.482-3.622-1.185-3.622.964zm22.813-3.966l-.024.177h4.235c-.195-2.67-3.775-2.767-4.211-.177z"/>
    <text fill="#FFF" font-family="Helvetica" font-size="10">
      <tspan x="80.085" y="170.441">Media Kit</tspan>
    </text>
  </g>
</svg>
