<?xml version="1.0" encoding="UTF-8"?>
<svg width="141px" height="30px" viewBox="0 0 141 30" version="1.1" xmlns="http://www.w3.org/2000/svg" xmlns:xlink="http://www.w3.org/1999/xlink">
    <title>Microsoft_logo_(2012)</title>
    <g id="Home" stroke="none" stroke-width="1" fill="none" fill-rule="evenodd">
        <g transform="translate(-952.000000, -2920.000000)" fill="#000000" fill-rule="nonzero" id="Weaponise-CV">
            <g transform="translate(0.000000, 1669.000000)">
                <g id="Get-Hired" transform="translate(140.000000, 1228.000000)">
                    <g id="Logos" transform="translate(625.000000, 0.000000)">
                        <g id="Microsoft_logo_(2012)" transform="translate(187.000000, 23.000000)">
                            <path d="M49.5813953,17.2790698 L48.744186,19.6511628 L48.6744186,19.6511628 C48.5348837,19.1162791 48.2790698,18.3023256 47.8604651,17.3255814 L43.372093,6.04651163 L38.9767442,6.04651163 L38.9767442,24.0232558 L41.8837209,24.0232558 L41.8837209,12.9302326 C41.8837209,12.2325581 41.8837209,11.4418605 41.8604651,10.4651163 C41.8372093,9.97674419 41.7906977,9.60465116 41.7674419,9.3255814 L41.8372093,9.3255814 C41.9767442,10.0232558 42.1395349,10.5348837 42.255814,10.8604651 L47.6511628,23.9767442 L49.6976744,23.9767442 L55.0465116,10.744186 C55.1627907,10.4418605 55.2790698,9.8372093 55.3953488,9.3255814 L55.4651163,9.3255814 C55.3953488,10.6511628 55.3488372,11.8372093 55.3255814,12.5581395 L55.3255814,23.9534884 L58.4186047,23.9534884 L58.4186047,6 L54.1860465,6 L49.5813953,17.2790698 L49.5813953,17.2790698 Z M61.3488372,11.0697674 L64.372093,11.0697674 L64.372093,23.9534884 L61.3488372,23.9534884 L61.3488372,11.0697674 Z M62.8837209,5.62790698 C62.372093,5.62790698 61.9534884,5.81395349 61.6046512,6.13953488 C61.255814,6.46511628 61.0697674,6.88372093 61.0697674,7.39534884 C61.0697674,7.88372093 61.255814,8.30232558 61.6046512,8.62790698 C61.9534884,8.95348837 62.372093,9.11627907 62.8837209,9.11627907 C63.3953488,9.11627907 63.8372093,8.93023256 64.1627907,8.62790698 C64.5116279,8.30232558 64.6976744,7.88372093 64.6976744,7.39534884 C64.6976744,6.90697674 64.5116279,6.48837209 64.1627907,6.13953488 C63.8604651,5.81395349 63.4186047,5.62790698 62.8837209,5.62790698 M75.0930233,10.9534884 C74.5348837,10.8372093 73.9534884,10.7674419 73.3953488,10.7674419 C72.0232558,10.7674419 70.7674419,11.0697674 69.7209302,11.6744186 C68.6744186,12.2790698 67.8372093,13.1162791 67.3023256,14.1627907 C66.744186,15.2325581 66.4651163,16.4651163 66.4651163,17.8837209 C66.4651163,19.1162791 66.744186,20.2093023 67.2790698,21.2093023 C67.8139535,22.1860465 68.5581395,22.9767442 69.5581395,23.5116279 C70.5116279,24.0465116 71.627907,24.3255814 72.8837209,24.3255814 C74.3255814,24.3255814 75.5581395,24.0232558 76.5348837,23.4651163 L76.5581395,23.4418605 L76.5581395,20.6511628 L76.4418605,20.744186 C76,21.0697674 75.4883721,21.3488372 74.9767442,21.5116279 C74.4418605,21.6976744 73.9534884,21.7906977 73.5348837,21.7906977 C72.3255814,21.7906977 71.372093,21.4418605 70.6976744,20.6744186 C70,19.9302326 69.6511628,18.9069767 69.6511628,17.627907 C69.6511628,16.3023256 70,15.255814 70.7209302,14.4883721 C71.4418605,13.7209302 72.3953488,13.3255814 73.5581395,13.3255814 C74.5348837,13.3255814 75.5348837,13.6511628 76.4418605,14.3023256 L76.5581395,14.3953488 L76.5581395,11.4418605 L76.5348837,11.4186047 C76.1395349,11.255814 75.6976744,11.0697674 75.0930233,10.9534884 M85.0697674,10.8604651 C84.3255814,10.8604651 83.627907,11.0930233 83.0232558,11.5813953 C82.5116279,12 82.1627907,12.6046512 81.8604651,13.3255814 L81.8372093,13.3255814 L81.8372093,11.0697674 L78.8139535,11.0697674 L78.8139535,23.9534884 L81.8372093,23.9534884 L81.8372093,17.372093 C81.8372093,16.255814 82.0697674,15.3255814 82.5813953,14.6511628 C83.0930233,13.9534884 83.744186,13.6046512 84.5348837,13.6046512 C84.8139535,13.6046512 85.0930233,13.6744186 85.4418605,13.7209302 C85.7674419,13.8139535 86,13.9069767 86.1627907,14.0232558 L86.2790698,14.1162791 L86.2790698,11.0930233 L86.2093023,11.0697674 C86,10.9302326 85.5813953,10.8604651 85.0697674,10.8604651 M93.3023256,10.7906977 C91.1860465,10.7906977 89.4883721,11.4186047 88.3023256,12.6511628 C87.0930233,13.8837209 86.5116279,15.5813953 86.5116279,17.7209302 C86.5116279,19.7209302 87.1162791,21.3488372 88.2790698,22.5348837 C89.4418605,23.6976744 91.0232558,24.3023256 93,24.3023256 C95.0697674,24.3023256 96.7209302,23.6744186 97.9069767,22.4186047 C99.1162791,21.1627907 99.6976744,19.4883721 99.6976744,17.4186047 C99.6976744,15.372093 99.1395349,13.744186 98,12.5581395 C96.9069767,11.372093 95.3023256,10.7906977 93.3023256,10.7906977 M95.7209302,20.6976744 C95.1627907,21.4186047 94.2790698,21.7674419 93.1860465,21.7674419 C92.0930233,21.7674419 91.2093023,21.4186047 90.5813953,20.6511628 C89.9534884,19.9302326 89.6511628,18.8837209 89.6511628,17.5581395 C89.6511628,16.1860465 89.9767442,15.1395349 90.5813953,14.3953488 C91.2093023,13.6511628 92.0697674,13.2790698 93.1627907,13.2790698 C94.2325581,13.2790698 95.0697674,13.627907 95.6744186,14.3488372 C96.2790698,15.0697674 96.6046512,16.1162791 96.6046512,17.4883721 C96.5581395,18.8837209 96.3023256,19.9767442 95.7209302,20.6976744 M106.44186,16.4186047 C105.488372,16.0232558 104.883721,15.7209302 104.604651,15.4651163 C104.372093,15.2325581 104.255814,14.9069767 104.255814,14.4883721 C104.255814,14.1395349 104.395349,13.7906977 104.744186,13.5581395 C105.093023,13.3255814 105.488372,13.2093023 106.069767,13.2093023 C106.581395,13.2093023 107.116279,13.3023256 107.627907,13.4418605 C108.139535,13.5813953 108.604651,13.7906977 108.976744,14.0697674 L109.093023,14.1627907 L109.093023,11.3255814 L109.023256,11.3023256 C108.674419,11.1627907 108.209302,11.0232558 107.651163,10.9069767 C107.093023,10.8139535 106.581395,10.7674419 106.162791,10.7674419 C104.72093,10.7674419 103.534884,11.1162791 102.604651,11.8837209 C101.674419,12.6046512 101.232558,13.5813953 101.232558,14.7209302 C101.232558,15.3255814 101.325581,15.8604651 101.534884,16.3023256 C101.744186,16.744186 102.046512,17.1627907 102.465116,17.5116279 C102.883721,17.8372093 103.488372,18.2093023 104.325581,18.5581395 C105.023256,18.8604651 105.55814,19.0930233 105.883721,19.2790698 C106.209302,19.4651163 106.418605,19.6744186 106.581395,19.8372093 C106.697674,20.0232558 106.767442,20.255814 106.767442,20.5581395 C106.767442,21.4186047 106.116279,21.8372093 104.790698,21.8372093 C104.27907,21.8372093 103.744186,21.744186 103.116279,21.5348837 C102.488372,21.3255814 101.906977,21.0232558 101.418605,20.6744186 L101.302326,20.5813953 L101.302326,23.5348837 L101.372093,23.5581395 C101.813953,23.7674419 102.348837,23.9069767 103,24.0697674 C103.651163,24.1860465 104.232558,24.2790698 104.744186,24.2790698 C106.302326,24.2790698 107.581395,23.9302326 108.488372,23.1627907 C109.418605,22.4186047 109.906977,21.4651163 109.906977,20.2325581 C109.906977,19.372093 109.674419,18.6046512 109.162791,18.0232558 C108.488372,17.4651163 107.651163,16.8837209 106.44186,16.4186047 M117.883721,10.7906977 C115.767442,10.7906977 114.069767,11.4186047 112.883721,12.6511628 C111.697674,13.8837209 111.093023,15.5813953 111.093023,17.7209302 C111.093023,19.7209302 111.697674,21.3488372 112.860465,22.5348837 C114.023256,23.6976744 115.604651,24.3023256 117.581395,24.3023256 C119.651163,24.3023256 121.302326,23.6744186 122.488372,22.4186047 C123.697674,21.1627907 124.27907,19.4883721 124.27907,17.4186047 C124.27907,15.372093 123.72093,13.744186 122.581395,12.5581395 C121.488372,11.372093 119.883721,10.7906977 117.883721,10.7906977 M120.27907,20.6976744 C119.72093,21.4186047 118.837209,21.7674419 117.744186,21.7674419 C116.627907,21.7674419 115.767442,21.4186047 115.139535,20.6511628 C114.511628,19.9302326 114.209302,18.8837209 114.209302,17.5581395 C114.209302,16.1860465 114.534884,15.1395349 115.139535,14.3953488 C115.767442,13.6511628 116.627907,13.2790698 117.72093,13.2790698 C118.767442,13.2790698 119.627907,13.627907 120.232558,14.3488372 C120.837209,15.0697674 121.162791,16.1162791 121.162791,17.4883721 C121.162791,18.8837209 120.860465,19.9767442 120.27907,20.6976744 M140.44186,13.5581395 L140.44186,11.0697674 L137.395349,11.0697674 L137.395349,7.25581395 L137.302326,7.27906977 L134.418605,8.13953488 L134.348837,8.1627907 L134.348837,11.0697674 L129.790698,11.0697674 L129.790698,9.44186047 C129.790698,8.69767442 129.976744,8.11627907 130.302326,7.74418605 C130.627907,7.37209302 131.116279,7.18604651 131.72093,7.18604651 C132.139535,7.18604651 132.581395,7.27906977 133.069767,7.48837209 L133.186047,7.55813953 L133.186047,4.93023256 L133.116279,4.90697674 C132.697674,4.76744186 132.139535,4.6744186 131.418605,4.6744186 C130.511628,4.6744186 129.72093,4.88372093 129,5.23255814 C128.27907,5.62790698 127.744186,6.1627907 127.348837,6.88372093 C126.953488,7.58139535 126.744186,8.37209302 126.744186,9.27906977 L126.744186,11.0697674 L124.627907,11.0697674 L124.627907,13.5348837 L126.744186,13.5348837 L126.744186,23.9534884 L129.790698,23.9534884 L129.790698,13.5581395 L134.348837,13.5581395 L134.348837,20.1860465 C134.348837,22.9069767 135.627907,24.2790698 138.186047,24.2790698 C138.604651,24.2790698 139.046512,24.2093023 139.465116,24.1395349 C139.906977,24.0465116 140.232558,23.9302326 140.418605,23.8372093 L140.44186,23.8139535 L140.44186,21.3255814 L140.325581,21.4186047 C140.139535,21.5348837 139.976744,21.627907 139.697674,21.6976744 C139.465116,21.7674419 139.255814,21.7906977 139.093023,21.7906977 C138.488372,21.7906977 138.069767,21.6511628 137.767442,21.3023256 C137.488372,20.9767442 137.348837,20.4418605 137.348837,19.6511628 L137.348837,13.5581395 L140.44186,13.5581395 L140.44186,13.5581395 Z" id="Shape"></path>
                            <polygon id="Path" points="0 0 14.255814 0 14.255814 14.255814 0 14.255814"></polygon>
                            <polygon id="Path" points="15.744186 0 30 0 30 14.255814 15.744186 14.255814"></polygon>
                            <polygon id="Path" points="0 15.744186 14.255814 15.744186 14.255814 30 0 30"></polygon>
                            <polygon id="Path" points="15.744186 15.744186 30 15.744186 30 30 15.744186 30"></polygon>
                        </g>
                    </g>
                </g>
            </g>
        </g>
    </g>
</svg>