<?xml version="1.0" encoding="UTF-8"?>
<svg width="137px" height="19px" viewBox="0 0 137 19" version="1.1" xmlns="http://www.w3.org/2000/svg" xmlns:xlink="http://www.w3.org/1999/xlink">
    <title>Tesla_Motors</title>
    <g id="Home" stroke="none" stroke-width="1" fill="none" fill-rule="evenodd">
        <g transform="translate(-1150.000000, -3050.000000)" fill="#000000" fill-rule="nonzero" id="Weaponise-CV">
            <g transform="translate(0.000000, 1669.000000)">
                <g id="Get-Hired" transform="translate(140.000000, 1228.000000)">
                    <g id="Logos" transform="translate(625.000000, 0.000000)">
                        <g id="TESLA" transform="translate(385.000000, 153.000000)">
                            <g id="g8" transform="translate(115.960714, 0.000000)">
                                <polyline id="polyline10" points="0.783346429 7.64 0.783346429 18.596 4.22155714 18.596 4.22155714 11.3015 16.7350393 11.3015 16.7350393 18.596 20.1708036 18.596 20.1708036 7.659 0.783346429 7.64"></polyline>
                                <path d="M3.83844643,4.096 L17.0589464,4.096 C18.8952357,3.723 20.2608321,2.067 20.6459,0.465 L0.251982143,0.465 C0.633135714,2.0675 2.01879286,3.723 3.83844643,4.096" id="path12"></path>
                            </g>
                            <g id="g14" transform="translate(90.028571, 0.000000)">
                                <path d="M16.3025107,18.603 C18.03605,17.852 18.9686286,16.553 19.3258071,15.033 L3.90498929,15.033 L3.914775,0.474 L0.457971429,0.484 L0.457971429,18.603 L16.3025107,18.603" id="path16"></path>
                            </g>
                            <g id="g18" transform="translate(60.182143, 0.000000)">
                                <path d="M4.59830714,4.047 L16.8079429,4.047 C18.6486357,3.5005 20.1942893,2.0675 20.5710393,0.479 L1.17575357,0.479 L1.17575357,11.1865 L17.0501393,11.1865 L17.0501393,14.944 L4.59830714,14.954 C2.64703571,15.51 0.992271429,16.849 0.166846429,18.6175 L1.17575357,18.5985 L20.46095,18.5985 L20.46095,7.6265 L4.59830714,7.6265 L4.59830714,4.047" id="path20"></path>
                            </g>
                            <g id="g22" transform="translate(30.825000, 0.000000)">
                                <path d="M3.81398214,4.0815 L17.0300786,4.0815 C18.8688143,3.707 20.2353893,2.0525 20.6185,0.449 L0.225560714,0.449 C0.606225,2.0525 1.99286071,3.707 3.81398214,4.0815" id="path24"></path>
                                <path d="M3.81398214,11.2425 L17.0300786,11.2425 C18.8688143,10.872 20.2353893,9.216 20.6185,7.6115 L0.225560714,7.6115 C0.606225,9.2165 1.99286071,10.872 3.81398214,11.2425" id="path26"></path>
                                <path d="M3.81398214,18.601 L17.0300786,18.601 C18.8688143,18.2275 20.2353893,16.572 20.6185,14.9695 L0.225560714,14.9695 C0.606225,16.5725 1.99286071,18.2275 3.81398214,18.601" id="path28"></path>
                            </g>
                            <g id="g30">
                                <path d="M0.256385714,0.493 C0.653685714,2.0765 1.99530714,3.695 3.836,4.1005 L9.39917857,4.1005 L9.68296429,4.215 L9.68296429,18.5605 L13.1568929,18.5605 L13.1568929,4.215 L13.4724821,4.1005 L19.0405536,4.1005 C20.9017964,3.6105 22.21455,2.0765 22.605,0.493 L22.605,0.458 L0.256385714,0.458 L0.256385714,0.493" id="path32"></path>
                            </g>
                        </g>
                    </g>
                </g>
            </g>
        </g>
    </g>
</svg>